<?xml version="1.0" encoding="utf-8"?>
<!-- Generator: Adobe Illustrator 28.3.0, SVG Export Plug-In . SVG Version: 6.00 Build 0)  -->
<svg version="1.1" id="Laag_1" xmlns="http://www.w3.org/2000/svg" xmlns:xlink="http://www.w3.org/1999/xlink" x="0px" y="0px"
	 viewBox="0 0 646 624.01" style="enable-background:new 0 0 646 624.01;" xml:space="preserve">
<g>
	<path d="M115.62,552.21c-11.46-10.9-23.74-21.12-34.29-32.9C56.27,491.35,34.68,461,21.23,425.46
		c-9.88-26.1-16.43-52.93-19.51-80.64c-2.83-25.48-2-50.86,1.38-76.25c3.58-26.89,10.06-53,19.87-78.27
		c2.21-5.7,4.94-11.2,7.61-16.7c0.7-1.44,1.66-3.68,3.83-2.72c2.53,1.12,1.01,3.23,0.39,4.87c-4.21,11.09-8.91,22.02-12.64,33.27
		c-7.3,21.99-12.29,44.53-14.78,67.61c-2.38,22.07-2.45,44.16-0.56,66.24c0.65,7.57,2.25,15.07,3.48,22.58
		c0.19,1.18,0.75,2.29,1.27,3.82c1.06-0.64,1.88-0.93,2.42-1.49c9.61-9.86,21.55-15.59,34.46-19.68c8.68-2.75,7.57-0.63,8.98-10.39
		c2.51-17.31,4.81-34.64,7.17-51.97c0.55-4.04,0.31-4.28-3.35-5.88c-1.59-0.69-3.11-1.59-4.56-2.55c-2.84-1.87-4.27-4.47-3.77-7.97
		c0.21-1.48,0.53-2.98,0.48-4.46c-0.25-6.63,3.5-9.48,9.46-10.86c14.23-3.31,28.4-6.91,42.6-10.34c20.4-4.92,40.83-9.71,61.21-14.73
		c4.26-1.05,8.35-0.92,12.58-0.19c23.02,3.97,46.05,7.84,69.07,11.8c5.17,0.89,10.31,1.94,15.42,3.11c4.37,1,5.28,2.28,5.5,6.68
		c0.06,1.25,0.03,2.52,0.29,3.73c0.75,3.48,0.73,6.36-3.56,7.63c-2.27,0.67-1.97,2.89-1.67,4.8c1.13,7.28,2.37,14.55,3.36,21.85
		c2.07,15.35,4,30.72,6,46.07c0.24,1.86,0.4,3.77,1.02,5.51c0.33,0.94,1.57,1.56,2.39,2.32c0.66-0.89,1.81-1.74,1.89-2.68
		c0.19-2.09-0.26-4.23-0.27-6.35c-0.08-10.5-0.04-21-0.2-31.5c-0.04-2.71,0.89-4.32,3.54-4.82c2.86-0.53,3.8-2.31,3.79-5.07
		c-0.08-19.5-0.09-39-0.13-58.49c0-0.62-0.18-1.26-0.09-1.86c0.24-1.65,1.16-3.11,2.88-2.69c0.91,0.23,2.06,1.84,2.1,2.87
		c0.21,5.36,0.08,10.74,0.1,16.11c0.04,15,0.11,29.99,0.12,44.99c0,2.03,0.66,3.4,2.73,3.82c3.13,0.64,3.67,2.87,3.69,5.62
		c0.07,11,0.23,21.99,0.36,32.98c0.06,5.19,0.4,5.4,5.7,4.84c5.46-0.58,10.93-1.11,16.41-1.47c14.01-0.92,28.21,11.38,27.77,26.34
		c-0.17,5.74,0.19,11.49,0.35,17.24c0.04,1.43,0.24,2.86,0.43,4.95c1.74-1.07,2.88-1.76,4-2.47c6.13-3.84,12.7-5.98,19.45-2.27
		c6.91,3.79,9.92,10.3,10.1,18.1c0.16,6.9-2.22,12.77-7.58,17.21c-3.34,2.76-7.21,4.14-11.52,2.6c-3.27-1.17-6.43-2.67-9.62-4.07
		c-1.44-0.63-2.81-1.39-4.25-2.11c-1.28,3.21-1.37,28.13-0.13,32.29c1.36-0.5,2.72-0.94,4.03-1.5c16.51-7.06,33.67-8.55,51.02-4.59
		c6.95,1.59,13.44,5.26,20.05,8.18c1.4,0.62,2.79,1.87,3.57,3.2c3.08,5.2,7.8,8.43,12.98,11c3.4,1.68,5.14,4.18,5.67,7.76
		c0.13,0.87,0.33,1.72,0.4,2.59c0.39,5.32,2.23,9.94,6.29,13.56c3.6,3.21,3.94,7.41,3.1,11.72c-0.83,4.26-0.24,8.1,1.79,11.92
		c2.32,4.37,2.82,8.85,0.87,13.71c-0.91,2.26-0.82,5.15-0.45,7.64c0.56,3.77,0.14,7.17-1.7,10.49c-0.95,1.71-1.66,3.56-2.58,5.55
		c1.01,0.42,1.67,0.91,2.33,0.92c5.25,0.07,10.5,0.05,15.74,0.05c2.35,0,3.03-1.29,2.67-3.43c-0.93-5.52-1.83-11.05-2.83-17.09
		c2.55,5.46,4.29,10.66,5.2,16.15c0.71,4.26,0.86,4.43,5.29,4.44c3.75,0.01,7.5-0.08,11.25-0.05c2.46,0.02,3.52-0.96,3.6-3.56
		c0.15-4.45-1.14-8.12-4.74-10.84c-1.8-1.35-3.56-2.77-5.48-3.93c-7.09-4.31-11.44-10.66-13.9-18.43c-0.64-2.02-1.16-4.09-1.68-6.15
		c-2.94-11.68-4.41-14.51-11.97-23.61c2.47,1.01,5.07,1.76,7.38,3.06c16.17,9.1,26.75,22.21,29.19,41.1c0.33,2.53,1.07,5,1.62,7.5
		c0.39,0.03,0.77,0.06,1.16,0.09c0.37-1.28,1.04-2.56,1.07-3.85c0.35-12.86,0.92-25.75-1.52-38.5c-1.15-5.99-4.51-10.7-9.44-13.91
		c-16.16-10.52-29.07-24.78-43.49-37.29c-0.27-0.24-0.47-0.57-0.42-1.24c8.45,5.85,16.9,11.7,25.35,17.55
		c0.24-0.19,0.48-0.39,0.71-0.58c-1.08-1.31-2.04-2.76-3.26-3.92c-8.8-8.41-18.65-15.43-28.77-22.15
		c-9.99-6.63-19.75-13.58-29.42-20.93c0.67,0.25,1.39,0.42,2.02,0.76c18.06,9.94,35.98,20.16,54.21,29.77
		c14.55,7.67,24.96,18.5,29.66,34.47c0.51,1.72,1.3,3.36,1.96,5.04c0.26-0.05,0.52-0.09,0.78-0.14c0.11-0.9,0.39-1.82,0.32-2.71
		c-0.47-5.98-0.84-11.97-1.64-17.9c-0.19-1.43-1.59-3.29-2.91-3.87c-9.55-4.21-14.36-12.01-17.06-21.56
		c-1.01-3.57-2.07-7.12-2.62-11.12c7.42,6.75,14.84,13.51,22.69,20.66c-1.09-4.45-1.96-8.48-3.14-12.43
		c-0.27-0.9-1.48-1.65-2.42-2.22c-7.85-4.73-12.89-11.71-16-20.15c-1.72-4.67-2.58-9.72-4.71-14.18c-2.12-4.45-5.33-8.37-8.3-12.89
		c3.8,1.02,6.99,2.72,9.28,5.45c5.38,6.39,10.48,13,15.67,19.55c0.9,1.14,1.67,2.39,2.87,3.48c1.75-7.98,2.94-15.83-1.53-23.37
		c9.29,8.6,14.62,18.94,13.87,31.77c-0.17,2.87-1.16,5.93-2.59,8.43c-1.43,2.5-1.94,4.73-1.2,7.41c0.68,2.47,1.25,4.96,1.86,7.41
		c0.81-0.2,1.21-0.2,1.25-0.32c2.82-9,7.43-17.48,7.14-27.34c-0.2-6.98-1.85-13.53-4.93-19.97c10.96,6.25,20.8,29.04,16.85,39.54
		c-3.41-1.26-6.84-2.52-10.82-3.99c-0.29,1.79-0.76,3.18-0.7,4.56c0.41,9.17-1.55,17.58-7.14,25.08c-0.93,1.25-1.21,3.3-1.1,4.94
		c0.59,8.72,1.39,17.43,2.15,26.14c0.04,0.45,0.33,0.89,1.24,1.52c0.44-1.28,1.09-2.52,1.28-3.83c1.64-11.38,7.44-20.25,16.31-27.3
		c8.61-6.85,17.11-13.84,24.35-22.19c3.09-3.57,5.88-7.4,9.33-10.99c-1.8,5.18-3.34,10.47-5.46,15.52
		c-7.76,18.44-20.09,33.64-34.67,47.01c-8.12,7.45-11.99,16.2-11.86,27.16c0.09,7.23-0.62,14.47-0.97,21.71
		c-0.02,0.47,0.06,0.95,0.15,2.17c10.81-9.67,17.01-21.82,23.87-33.56c-2.19,7.91-5.2,15.48-8.84,22.8
		c-3.67,7.38-8.77,13.72-15.32,18.98c0.26,0.34,0.51,0.69,0.77,1.03c4.3,0,8.61,0.17,12.89-0.13c0.99-0.07,2.2-1.63,2.73-2.77
		c5.14-11.15,9.89-22.49,11.39-34.76c1.12-9.15,2.25-18.37,1.06-27.64c-0.04-0.32,0.18-0.67,0.39-1.35
		c6.96,5.96,5.7,14.16,6.06,21.84c0.29,0,0.58-0.01,0.87-0.01c0.46-0.49,1.12-0.9,1.34-1.48c2.34-6.19,4.94-12.31,6.79-18.64
		c1.1-3.77,1.22-7.88,1.4-11.85c0.27-5.88,1.92-11.28,4.59-16.46c5.07-9.86,8.52-20.27,10.05-31.26c1.25-9,5.1-16.7,11.21-23.26
		c4.39-4.72,9.11-9.15,13.95-13.49c-2.71,4.6-5.3,9.28-8.15,13.79c-5.33,8.42-9.21,17.4-11.64,27.08
		c-3.07,12.24-6.36,24.42-9.6,36.61c-0.56,2.1-1.33,4.13-2,6.2c0.24,0.15,0.48,0.29,0.72,0.44c2.12-1.62,4.08-3.5,6.39-4.77
		c2.26-1.24,4.86-1.86,6.94-2.62c-2.45,3.24-5.15,6.48-7.47,9.98c-2.64,3.97-5.35,7.57-10.67,7.89c-0.74,0.04-1.84,0.66-2.1,1.3
		c-1.96,4.65-3.75,9.37-5.59,14.07c0.33,0.27,0.66,0.54,0.99,0.81c5.89-4.16,11.78-8.32,17.71-12.5c-4.39,8.16-8.9,16.3-17.05,21.64
		c-3.45,2.26-6.83,4.62-10.29,6.86c-3.35,2.17-4.43,5.38-4.87,10.07c7.31-4.27,13.92-8.12,20.95-12.22
		c-3.71,6.03-7.65,11.39-12.65,15.87c-3.53,3.16-7.29,6.08-11,9.05c-2.82,2.26-3.39,3.83-2.49,8.16c0.91-0.54,1.76-0.96,2.51-1.52
		c22.28-16.59,40.64-36.91,56.57-59.54c2.16-3.07,4.4-6.07,6.49-9.18c2.09-3.1,2.01-3.47-1.14-5.66c-5.74-4-11.48-8.01-17.35-11.82
		c-2.3-1.49-3.22-3.04-2.59-5.85c2-8.88,3.55-17.87,5.75-26.7c0.76-3.05,2.83-5.79,4.4-8.61c1.02-1.83,2.43-2.21,4.37-1.07
		c9.7,5.68,19.46,11.27,29.18,16.91c1.49,0.86,2.91,1.84,4.64,2.94c-0.93,2.17-1.79,4.36-2.8,6.47
		c-21.24,44.29-51.05,81.58-90.32,111.29c-5.37,4.06-10.54,5.87-17.32,5.93c-21.61,0.19-43.25,0.58-64.8,2.04
		c-38.81,2.62-77.21,8.36-115.14,17.18c-32.32,7.51-63.83,17.57-95.01,28.76c-3.12,1.12-5.95,1.19-9.1,0.32
		c-23.84-6.59-46.62-15.89-68.23-27.8c-8.35-4.6-15.76-10.95-23.49-16.65c-3.43-2.53-4.43-6.68-5.55-10.44
		c-6.8-22.7-2.7-43.13,14.05-60.22c13.35-13.61,36.3-15.4,52.24-4.84c17.14,11.35,25.43,27.7,26.86,47.8
		c0.99,13.83-2.11,26.81-9.1,38.83c-3.31,5.7-7.72,10.41-12.82,14.53c-1.03,0.83-1.98,1.76-3.33,2.98
		c3.76,2.44,7.36,3.71,11.26,3.71c1.15,0,2.45-1.12,3.43-2.01c8.72-7.96,14.27-17.85,17.85-29.02c9.22-28.72,1.26-62.41-23.24-83.06
		c-23.28-19.62-57.13-16.48-76.26,8.62c-8.56,11.23-12.94,23.94-13.42,37.88C114.5,535.88,115.29,543.85,115.62,552.21z
		 M46.1,425.78c1.44,1.16,1.49,2.11,0.2,3.68c-3.08,3.76-5.92,7.72-8.73,11.69c-1.4,1.98-1.52,4.19-0.23,6.36
		c6.7,11.26,13.36,22.54,20.11,33.77c0.93,1.54,2.25,2.85,3.88,4.88c0.51-1.96,0.94-3.1,1.09-4.28c1.21-9.46,1.49-18.95-0.07-28.38
		c-2.11-12.73-6.81-24.3-16.33-33.4c-5.07-4.84-11.19-7.44-18.27-7.43c-1.66,0-3.54-0.05-4.44,2.37c3.91,1.03,7.88,1.6,11.41,3.15
		c3.6,1.59,6.78,4.15,10.14,6.28c-5.86,2.6-8.98,7.69-11.64,13.1c-0.38,0.78,0.3,2.09,0.59,3.73
		C38.26,435.68,42.18,430.73,46.1,425.78z M261.07,318.83c0.29-0.03,0.58-0.06,0.87-0.1c1.49,7.08,2.95,14.17,4.52,21.23
		c0.29,1.3,0.14,3.44,2.3,3.06c0.49-0.09,0.98-2.35,0.84-3.53c-1.32-11.41-2.65-22.83-4.21-34.21c-1.72-12.5-3.8-24.94-5.5-37.44
		c-0.75-5.51-0.62-5.85-6.06-6.67c-19.14-2.88-38.3-5.68-57.46-8.45c-4.86-0.7-5.23-0.22-4.8,4.61c1.1,12.19,2.25,24.38,3.25,36.58
		c1.13,13.82,2.09,27.65,3.16,41.47c0.28,3.6,0.65,3.92,4.21,4.39c10.76,1.43,21.64,2.3,32.25,4.51c6.65,1.39,13.05,1.55,19.64,0.82
		c1.12-0.12,2.24-0.23,3.36-0.28c6.7-0.35,6.81-0.58,5.86-7.42C262.44,331.22,261.81,325.02,261.07,318.83z M341.09,535.3
		c-0.16,0.07-0.31,0.13-0.47,0.2c-1.44-4.05-2.89-8.08-4.29-12.14c-0.45-1.32-0.71-2.9-2.59-2.53c-1.98,0.39-1.68,2.17-1.24,3.33
		c1.96,5.23,3.27,10.98,6.37,15.47c11.95,17.29,35.56,20.06,49.17,1.1c9.6-13.37,9.92-33.92,0.85-47.84
		c-4.55-6.99-10.35-12.5-18.53-15.03c-3.55-1.1-4.33-0.55-4.37,3.08c-0.05,4.12,0.2,8.25,0.04,12.37
		c-0.29,7.23-5.26,12.05-12.48,12.3c-3.87,0.13-7.75,0.18-11.62,0.28c-18.23,0.48-36.47,0.98-54.71,1.45
		c-0.96,0.02-1.93-0.11-2.9-0.18c18.1-1.42,36.18-2.45,54.26-3.52c4.61-0.27,9.22-0.68,13.82-1.07c3.26-0.28,5.82-1.98,7.1-4.85
		c1.13-2.56,1.95-5.42,2.13-8.2c0.31-4.85,0.06-9.74-0.02-14.62c-0.08-4.49-0.49-4.98-4.99-4.97c-7.62,0.01-15.24,0.22-22.86,0.31
		c-12.12,0.15-24.25,0.23-36.37,0.43c-4.19,0.07-4.78,0.66-4.81,4.85c-0.04,4.62,0.13,9.24,0.32,13.86
		c0.04,0.91,0.57,1.81,0.95,2.94c0.73-0.6,1.06-0.74,1.09-0.92c0.23-1.47,0.54-2.95,0.58-4.44c0.26-9.97,3.86-9.52,10.56-10.05
		c2.86-0.22,5.75-0.08,8.62-0.14c5.5-0.11,10.99-0.25,16.49-0.38c6.25-0.15,12.49-0.38,18.74-0.42c4.31-0.03,6.68,1.76,7.3,5.95
		c0.44,2.91,0.47,6.02-0.05,8.91c-0.94,5.23-3.98,7.71-9.31,8.14c-6.47,0.53-12.96,0.93-19.44,1.35
		c-14.71,0.97-29.43,1.84-44.13,2.91c-10.15,0.73-10.14,0.85-14.07-8.62c-0.29-0.69-0.57-1.39-0.85-2.08
		c-3.4-8.35-7.1-16.51-12.57-23.79c-1.54-2.04-2.47-4.62-3.33-7.07c-1.52-4.36-2.7-8.84-4.15-13.23c-2.51-7.59-5.13-15.14-7.7-22.71
		c-0.65-1.92-1.55-3.23-4-3.03c-12.45,1.02-24.91,1.89-37.36,2.86c-2.01,0.16-4,0.61-6,0.93c0.02,0.35,0.04,0.7,0.06,1.05
		c1.54,0.13,3.07,0.38,4.6,0.36c11.12-0.17,22.24-0.43,33.36-0.6c4.34-0.06,4.34,0.01,5.83,4.21c0.75,2.12,1.54,4.23,2.27,6.35
		c2.5,7.33,5.05,14.64,7.38,22.03c0.42,1.33,0.45,3.59-0.35,4.31c-1.73,1.56-1.14,2.61,0.03,3.7c1.55,1.45,3.19,2.83,4.95,4
		c5.59,3.69,8.51,8.79,9.42,15.44c0.46,3.37,1.71,6.79,3.28,9.83c2,3.86,4.58,7.45,7.12,11c1.79,2.51,2.52,5.08,1.86,8.1
		c-2.06,9.34-1.8,18.56,1.57,27.6c0.04,0.12,0.06,0.24,0.1,0.36c0.64,2.3,0.42,4.32-1.23,6.28c-1.2,1.42-1.92,3.25-2.93,5.03
		c6.29,1.8,6.75,1.63,9.32-3.04c0.54-0.98,1.01-2.01,1.51-3.02c3.27-6.6,7.92-12.01,14.56-16.88c-0.87,3.22-1.52,5.7-2.22,8.17
		c-0.66,2.32-0.14,3.79,2.46,4.41c3.15,0.75,6.22,1.87,9.37,2.67c1.23,0.31,2.57,0.2,3.96,0.28c0-0.89,0.11-1.29-0.02-1.61
		c-3.6-9.14-5.78-18.59-6.55-28.38c-0.18-2.36-1.8-2.61-3.71-2.7c-6.08-0.29-12.15-0.69-18.22-1.04c5.19-0.66,10.4-1.26,15.62-1.55
		c19.21-1.07,38.42-1.99,57.63-3.13c1.83-0.11,3.83-1.07,5.33-2.19c3.61-2.67,6.86-2.31,9.38,1.49c2.21,3.33,2.66,7.08,1.73,10.81
		c-1.13,4.57-4.15,7.79-8.82,8.79c-4.29,0.93-7.81-0.96-10.61-4.19c-0.73-0.84-1.16-1.98-1.95-2.74c-0.74-0.71-1.76-1.49-2.71-1.57
		c-2.35-0.19-4.74-0.04-7.11,0.06c-2.38,0.1-3.43,1.34-2.76,3.71C338.81,527.73,339.96,531.51,341.09,535.3z M152.07,392.88
		c0-3.6-0.16-7.21,0.03-10.79c0.83-15.46,1.98-30.91,2.58-46.38c0.52-13.48,0.42-26.98,0.63-40.47c0.08-5.11-0.07-5.49-5.25-6.05
		c-15.64-1.69-31.3-3.28-46.96-4.86c-3.8-0.38-3.9-0.28-4.35,3.68c-1.45,12.65-2.87,25.31-4.24,37.97
		c-0.66,6.08-1.26,12.17-1.69,18.27c-0.07,0.96,0.67,2.62,1.41,2.87c1.76,0.6,1.87-1.12,2.05-2.32c0.55-3.71,1.02-7.42,1.54-11.13
		c1.23-8.9,2.47-17.81,3.71-26.71c-0.56,12.13-1.63,24.19-2.76,36.24c-0.48,5.08-0.54,5.08,4.2,7.21
		c15.81,7.1,28.43,17.92,37.86,32.46c0.91,1.4,1.89,2.76,2.83,4.13c0.32-0.07,0.64-0.14,0.96-0.21c2.5-7.66,2.85-15.84,5.07-23.57
		C149.94,373.18,149.2,383.17,152.07,392.88z M207.36,537.72c0.03-16.32-7.63-30.89-20.34-38.69c-12.75-7.83-27.97-5.58-38.19,5.4
		c-5.93,6.37-9.15,13.89-10.64,22.32c-3.13,17.68,2.23,32.46,15.86,43.89c17.21,14.43,38.92,9.47,48.73-10.73
		C206.19,552.89,207.45,545.45,207.36,537.72z M307.48,382.79c0.36-0.07,0.71-0.14,1.07-0.22c0-1.83-0.07-3.67,0.01-5.5
		c0.22-4.98,0.05-10.03,0.87-14.91c1.16-6.89,7.25-11.8,13.59-11.84c6.25-0.04,12.23,5.02,13.56,11.9c0.64,3.28,0.76,6.7,0.77,10.05
		c0.06,28.62,0.03,57.24,0.04,85.85c0,1.25,0.02,2.5,0.05,3.75c0.05,1.78,0.88,2.78,2.76,2.8c1.88,0.02,2.76-0.88,2.76-2.73
		c0-1.12,0.05-2.25,0.06-3.37c0.03-16.62,0.07-33.24,0.07-49.86c0.01-14.25,0.18-28.5-0.1-42.74c-0.27-14.24-11-24.1-24.91-22.94
		c-13.43,1.12-26.84,2.6-40.25,4.04c-14.4,1.55-28.78,3.28-43.17,4.86c-9.43,1.03-18.87,2.03-28.32,2.86
		c-2.78,0.24-3.99,1.43-4.3,4.1c-0.42,3.59-1.18,7.15-1.57,10.75c-1.65,15.14-3.23,30.28-4.77,45.43c-0.15,1.5,0.11,3.04,0.18,4.57
		c0.33,0.03,0.66,0.06,0.99,0.08c0.36-1.25,0.8-2.48,1.05-3.75c1.15-5.76,2.22-11.53,3.36-17.28c0.79-4.01,1.03-4.18,5.13-4.38
		c11.35-0.56,22.72-0.89,34.05-1.8c3.69-0.3,5.79,0.77,7.75,3.64c6.34,9.28,12.86,18.44,19.25,27.69c0.53,0.77,0.79,1.83,0.89,2.78
		c1.57,15.28,3.03,30.57,4.64,45.85c0.66,6.23,1.63,12.44,2.46,18.65c0.29-0.01,0.57-0.03,0.86-0.04
		c0.19-5.72,0.57-11.44,0.53-17.15c-0.1-17.24-0.32-34.48-0.65-51.72c-0.03-1.67-0.84-3.62-1.91-4.92
		c-2.84-3.44-6.29-6.38-9.01-9.91c-3.81-4.94-7.39-10.09-10.65-15.41c-2.68-4.38-5.95-6.06-11.14-5.25
		c-5.62,0.88-11.37,0.93-17.07,1.35c-0.01-0.16-0.03-0.32-0.04-0.48c6.39-0.63,12.77-1.26,19.16-1.9
		c-13.77-1.85-27.36,0.55-40.84,1.37c-0.28-0.7-0.48-0.95-0.44-1.15c1.3-7.37,2.6-14.74,3.96-22.11c0.36-1.95,1.85-2.39,3.62-2.58
		c8.56-0.91,17.12-1.95,25.68-2.85c16.39-1.72,32.78-3.4,49.17-5.04c6.05-0.61,12.11-1.07,18.77-1.65
		c-3.07,7.3-2.37,14.55-2.74,21.73C302.52,377.72,304.61,380.35,307.48,382.79z M151.11,444.72c0.12-0.91,0.23-1.18,0.17-1.4
		c-3.89-14.63-8.55-28.95-15.89-42.3c-7.62-13.87-17.15-26.12-30.21-35.21c-7.92-5.51-16.43-10.1-26.49-10.35
		c-8.35-0.21-16.78-1.03-25.05-0.26c-6.47,0.6-12.76,3.18-19.1,4.97c-0.75,0.21-1.35,0.98-2.21,1.64c0.68,0.3,0.79,0.39,0.9,0.39
		c0.37-0.01,0.75-0.01,1.11-0.09c14.76-3.15,28.53-0.48,41.35,7.24c13.36,8.05,23.41,19.35,31.21,32.7
		c7.11,12.17,11.92,25.27,15.01,38.99c0.55,2.45,1.47,3.64,4.17,3.65c6.86,0.02,13.73,0.33,20.59,0.46
		C148.12,445.15,149.57,444.87,151.11,444.72z M71.57,344.79c0-0.04,0-0.08,0-0.12c2.24,0,4.49-0.02,6.73,0.01
		c3.89,0.05,4.21-0.08,4.71-4.07c1.21-9.65,2.32-19.3,3.38-28.97c0.91-8.3,1.6-16.62,2.55-24.91c0.32-2.77-0.68-3.88-3.36-4.07
		c-3.73-0.26-7.44-0.76-11.17-1.05c-4.37-0.35-4.92,0.21-5.45,4.52c-1.12,9.03-2.31,18.04-3.49,27.06
		c-1.23,9.39-2.51,18.78-3.72,28.18c-0.4,3.13-0.01,3.48,3.08,3.43C67.09,344.76,69.33,344.79,71.57,344.79z M173.61,316.68
		c0.27,0,0.54,0,0.81,0c0,10.85-0.03,21.71,0.01,32.56c0.01,4.01,0.83,4.66,5.33,4.66c3.03,0,3.27-0.32,3.35-4.34
		c0-0.25,0.01-0.5,0-0.75c-0.18-18.48-0.37-36.96-0.55-55.44c0-0.37-0.03-0.75-0.02-1.12c0.06-2.22-0.84-3.19-3.2-2.84
		c-3.09,0.45-6.2,0.76-9.31,0.98c-2.61,0.18-3.41,1.66-3.3,3.99c0.11,2.37,0.27,4.74,0.29,7.11c0.14,15.11,0.24,30.22,0.36,45.33
		c0.01,1.12,0.04,2.25,0.12,3.37c0.11,1.64,0.61,2.92,2.64,2.89c1.88-0.03,2.25-1.27,2.35-2.74c0.09-1.24,0.1-2.49,0.14-3.74
		C172.96,336.62,173.28,326.65,173.61,316.68z M169.43,444.58c0.35,0.01,0.71,0.02,1.06,0.03c0.54-11.34,1.1-22.67,1.6-34.01
		c0.49-11.23,0.91-22.46,1.36-33.68c0.39,19.51,0.39,39.01,0.4,58.5c0,1.5-0.22,3.1,0.23,4.46c0.3,0.9,1.53,1.92,2.49,2.1
		c2.19,0.41,3.07-1,3.21-3.09c0.4-6.23,1.01-12.45,1.28-18.69c0.64-15.1,1.13-30.21,1.66-45.32c0.11-3.12,0.14-6.24,0.2-9.36
		c0.04-2-0.91-2.99-2.95-2.96c-3,0.04-6,0.03-9,0.04c-1.97,0-3.02,0.92-3.02,2.96c0,1.37-0.07,2.75-0.05,4.12
		c0.25,21.62,0.48,43.23,0.8,64.85C168.72,437.89,169.16,441.23,169.43,444.58z M397.68,551.75c6.91,1.62,9.98,0.28,12.25-5.55
		c1.49-3.82,2.79-7.77,3.66-11.77c1.85-8.5,1.7-17.11,0.71-25.72c-1.76-15.38-6.64-29.43-17.39-40.99
		c-12.57-13.52-28.57-17.52-46.3-16.62c-0.86,0.04-2.33,1.08-2.39,1.75c-0.31,3.34-0.32,6.72-0.23,10.08
		c0.02,0.54,1.1,1.45,1.71,1.45c0.62,0.01,1.54-0.77,1.79-1.41c0.39-1.01,0.37-2.2,0.46-3.32c0.3-3.58,0.56-3.94,3.99-3.84
		c8.36,0.23,16.31,2.05,23.68,6.16c34.45,19.18,36.75,63.93,19.97,86.25C398.84,549.26,398.36,550.5,397.68,551.75z M67.27,275.16
		c-1.33-0.99-2.39-1.76-3.43-2.55c-2.38-1.8-2.17-4.38-1.83-6.86c0.31-2.21,2.35-2.32,4.03-2.69c2.8-0.62,5.63-1.12,8.43-1.76
		c21.4-4.92,42.8-9.87,64.2-14.8c10.09-2.33,20.18-4.64,30.27-6.99c3.51-0.82,4.22-1.76,3.62-4.35c-0.8-3.41-3.2-1.99-5.09-1.61
		c-2.81,0.56-5.56,1.43-8.35,2.09c-30.98,7.29-61.97,14.54-92.95,21.85c-7.98,1.88-8.53,2.68-8.54,10.88
		C57.62,273.7,61.29,276.48,67.27,275.16z M273.71,413.74c2.03-0.95,3.25-1.78,4.59-2.11c3.5-0.86,5.8,1.19,8.16,3.42
		c5.04,4.75,11.72,4.39,16.55-0.66c7.62-7.95,7.74-26.48-5.06-33.11c-2.35-1.22-4.67-1.62-7.2-0.84
		c-5.59,1.73-11.26,3.26-16.76,5.24c-1.97,0.71-4.19,2.15-5.2,3.89c-2.51,4.34-3.5,9.24-1.2,13.99
		C269.41,407.3,271.87,410.73,273.71,413.74z M66.06,396.35c-0.32,0.14-0.64,0.28-0.96,0.42c0.18,0.55,0.29,1.14,0.54,1.65
		c2.58,5.26,5.32,10.45,7.77,15.77c10.98,23.82,15.3,48.69,11.37,74.76c-0.89,5.91-2.3,11.74-3.62,17.57
		c-0.95,4.2-0.45,5.78,3.29,7.76c8.86-20.48,8.8-41.82,6.14-63.24C88.03,430.38,79.42,412.22,66.06,396.35z M81.24,390.57
		c-2.8-5.91-6.45-7.76-12.01-6.93c-1.68,0.25-3.73-0.19-5.24-1.01c-2.37-1.27-4.42-3.13-5.93-4.24c0.31-1.71,0.98-3.48,0.61-3.73
		c-3.69-2.52-7.39-5.17-12.32-4.32c-3.92,0.68-7.86,1.2-11.79,1.79c-3.7,0.55-7.41,1.04-11.09,1.68c-0.94,0.16-1.79,0.82-2.68,1.25
		c0.11,0.26,0.22,0.52,0.33,0.78c1.19-0.19,2.38-0.54,3.57-0.55c5.6-0.06,11.3-0.73,16.77,0.11c10.81,1.66,18.76,8.6,25.58,16.54
		c4.76,5.55,8.5,11.97,12.75,17.96c0.68,0.95,1.61,2.29,2.55,2.4c4.53,0.53,9.1,0.7,13.72,0.99c-1.44-6.25-5.29-9.47-11.15-9.69
		c-1.68-0.06-4.06,0.11-4.9-0.87c-2.7-3.13-4.83-6.75-7.53-10.68C75.89,391.47,78.51,391.03,81.24,390.57z M265.75,253.85
		c0.01-4.44-1-5.69-4.77-6.49c-0.85-0.18-1.72-0.33-2.58-0.47c-16.25-2.65-32.51-5.26-48.76-7.95c-10.71-1.77-21.4-3.66-32.11-5.43
		c-1.64-0.27-3.62-0.95-4.19,1.68c-0.48,2.25,0.38,3.34,3.28,3.9c2.69,0.52,5.4,0.97,8.12,1.39c24.04,3.73,48.08,7.45,72.12,11.17
		c2.61,0.4,5.22,0.53,5.88,4.05c0.29,1.51,1.77,1.21,2.52,0.06C265.7,255.1,265.69,254.12,265.75,253.85z M145.32,468.41
		c25.49-10.58,51.31-16.19,78.62-9.15c0.86-2.85-0.61-3.89-2.25-4.52c-2.9-1.13-5.82-2.37-8.85-2.95
		c-23.68-4.51-45.29,0.69-65.01,14.29C146.91,466.72,146.15,467.62,145.32,468.41z M247.27,484.44c0.74-3.59-1.23-5.73-3.21-7.72
		c-8.35-8.43-18.68-12.7-30.36-13.73c-2.66-0.24-5.77-0.24-8.03,0.9c-3.21,1.63-6.08,1.47-9.33,0.86
		c-3.34-0.63-6.75-0.87-10.14-1.27c-0.05,0.35-0.11,0.71-0.16,1.06c12.81,3.5,25.62,7,38.42,10.49c0.14-0.19,0.27-0.38,0.41-0.58
		c-2.37-1.58-4.74-3.16-7.32-4.88C228.96,471.82,238.48,477.24,247.27,484.44z M260.1,520.17c0.28-0.12,0.57-0.25,0.85-0.37
		c0.76-2.81,0.84-5.68-0.88-8.15c-2.56-3.67-4.95-7.63-8.22-10.58c-7.56-6.82-15.66-12.93-27.13-10.5
		c-3.83-5.77-8.18-11.16-14.82-14.14c0.53,1.31,1.36,2.33,2.31,3.21c4.67,4.34,9.09,8.86,12.33,14.46c0.62,1.08,2.28,1.92,3.6,2.18
		c12.05,2.39,21.06,9.23,28.22,18.88C257.6,516.84,258.85,518.5,260.1,520.17z M230.33,501.98c-0.3,0.18-0.59,0.35-0.89,0.53
		c0.11,0.58,0.15,1.19,0.34,1.75c2.59,7.43,5.41,14.77,5.97,22.75c0.07,1.01,1.06,2.32,1.99,2.85c8.55,4.88,14.48,12.11,18.96,20.69
		c0.48,0.92,1.09,1.77,1.74,2.81c2.6-2.42,2.51-4.96,1.74-7.57c-1.77-5.99-4.68-11.38-9.41-15.48c-2.49-2.16-5.35-4.16-8.4-5.3
		c-2.59-0.97-3.65-2.18-4.4-4.77c-1.48-5.13-3.47-10.11-5.39-15.1C232.13,503.97,231.1,503.03,230.33,501.98z M368.9,385.76
		c-2.15-0.62-3.4-1.31-4.65-1.29c-4.87,0.11-9.55,1.37-12.91,5c-1.85,2-2.85,4.87-3.91,7.48c-0.28,0.7,0.6,2.7,0.97,2.7
		c2.8,0.04,5.61-0.26,8.38-0.45c0.29,10.24,6.49,18.78,13.37,16.74c-4.95-3.76-8.07-8.3-8.54-14.43
		C361.13,395.29,363.17,390.28,368.9,385.76z M414.24,476.31c-3.39-5.01-5.82-10.71-11.72-13.32c3.86,5.87,9.4,10.65,10.98,18.4
		c13.8,1.21,23.34,8.9,29.48,22.03c1.94-4.34,2.11-7.87-0.2-10.8c-3.06-3.89-6.25-7.9-10.13-10.87
		C427.47,477.81,421.53,474.96,414.24,476.31z M418.37,488.7c-0.31,0.1-0.62,0.19-0.93,0.29c0.06,0.58,0.09,1.17,0.2,1.74
		c1.05,5.62,1.99,11.27,3.25,16.84c0.27,1.21,1.45,2.64,2.58,3.17c10.42,4.88,16.15,13,17.39,24.39c0.11,1,0.43,1.97,0.65,2.96
		c0.32,0.02,0.65,0.03,0.97,0.05c0.56-1.59,1.44-3.16,1.59-4.79c0.22-2.46,0.44-5.11-0.23-7.42c-2.82-9.71-7.18-18.19-18.45-20.42
		c-0.82-0.16-1.7-1.32-2.07-2.22c-0.52-1.24-0.48-2.7-0.86-4.02C421.4,495.62,420.63,491.84,418.37,488.7z M240.48,589.23
		c3.21-1.24,6.05-1.51,7.26-4.52c3-7.52-0.56-20.77-7.36-25.07c-3.04-1.93-3.04-3.95-2.73-6.84c0.3-2.86,0.07-5.79,0.07-8.68
		c-0.81,0.29-1.13,0.67-1.22,1.09c-1.03,5.13-2.14,10.26-2.94,15.43c-0.16,1.05,0.6,2.65,1.46,3.39c7.05,6,8.51,13.42,6.01,21.98
		C240.81,586.78,240.76,587.62,240.48,589.23z M377.61,402.35c-0.01-5.67-1.13-9.02-3.24-11.31c-2.71-2.94-4.92-2.86-7.32,0.29
		c-3.78,4.95-3.26,14.2,1.06,18.74c2.08,2.18,3.87,2.29,6.11,0.19C376.97,407.68,377.6,404.29,377.61,402.35z M308.12,420.62
		c-2.79,2.61-5.25,4.09-5.2,7.71c0.15,10.84,0.09,21.69,0.13,32.53c0,0.74-0.11,1.66,0.27,2.19c0.63,0.89,1.52,1.98,2.47,2.18
		c2.33,0.49,3.07-0.42,3.05-3.31c-0.07-12.71-0.17-25.43-0.28-38.14C308.56,423.07,308.37,422.35,308.12,420.62z M433.89,472.44
		c-0.23-4.22-2.19-6.47-4.46-8.29c-7.63-6.1-16.14-10.31-26.03-11.2c-0.68-0.06-1.79-0.13-2.01,0.22c-1.23,2.04-3.05,1.16-4.7,1.17
		c-1.13,0-2.27,0-3.4,0c-0.05,0.3-0.1,0.6-0.15,0.91c6.83,4.86,14.75,6.83,22.69,8.74c0.17-0.38,0.33-0.75,0.5-1.13
		c-2.15-1.04-4.3-2.08-6.45-3.12C418.81,461.54,426.13,466.54,433.89,472.44z M265.2,504.6c-0.29,1.01-0.47,1.45-0.54,1.91
		c-1.16,7.73-2.32,15.46-3.44,23.2c-0.21,1.47-0.64,3.06-0.29,4.42c0.35,1.36,1.56,2.51,2.39,3.74c1.03-0.91,2.63-1.62,3.01-2.75
		c1.66-4.93,2.78-10.04,4.46-14.96C273,513.67,269.99,509.2,265.2,504.6z M365.05,445.15c0.03,0.47,0.05,0.94,0.08,1.4
		c4.67,0.3,9.4,1.26,13.98,0.76c10.99-1.2,21.68-0.44,32.22,2.82c1.06,0.33,2.23,0.29,3.79,0.48c-1.5-4.01-4.61-4.73-7.35-5.54
		c-10.69-3.17-21.58-3.94-32.61-1.99C371.78,443.67,368.43,444.45,365.05,445.15z M313.83,527.9c-0.42,0.08-0.85,0.16-1.27,0.24
		c0.13,2.31,0.06,4.66,0.43,6.93c1.62,9.86,6,18.44,12.43,26.04c3.15,3.72,4.54,4.02,9.78,1.4
		C325.32,552.61,317.67,541.42,313.83,527.9z M118.09,471.47c0.25-0.11,0.5-0.21,0.75-0.32c-0.31-1.34-0.29-2.88-0.98-3.97
		c-1.73-2.72-3.57-5.44-5.76-7.78c-4.69-5.01-10.36-8.58-17.08-10.26c-0.98-0.24-2.72-0.26-3.03,0.26
		c-0.54,0.91-0.72,2.62-0.19,3.45c0.79,1.24,2.18,2.38,3.56,2.92c8.17,3.18,15.33,7.74,21.06,14.45
		C116.86,470.75,117.53,471.07,118.09,471.47z M258.35,499.59c0.04-5.56,0.31-10.87,0.04-16.15c-0.22-4.42-3.41-7.67-8.26-9.03
		c0.3,6.43,0.59,12.74,0.91,19.05C251.26,497.8,252.56,499.02,258.35,499.59z M442.65,514.12c4.44-0.78,6.72-2.83,7.78-6.12
		c1.08-3.31,1.92-6.69,2.83-10.06c1.67-6.18,1.09-7.5-4.77-10.97C446.6,495.77,444.71,504.56,442.65,514.12z M255.01,565.55
		c0.47-0.08,0.99-0.05,1.38-0.25c7.64-3.9,12.08-10.54,15.09-18.23c0.83-2.13,0.8-4.61-1.45-6.32
		C264.43,545.91,254.68,561.93,255.01,565.55z M137.93,462.31c-0.27-0.24-0.54-0.49-0.81-0.73c-8.67,0.68-21.59,18.29-19.03,26.87
		C124.87,479.52,131.4,470.91,137.93,462.31z M91.32,497.33c-2.15,3.32-1.98,4.46,0.94,6.83c6.22,5.04,12.26,10.25,16.73,17.02
		c0.16,0.25,0.63,0.29,0.97,0.44C111.13,514,100.13,499.74,91.32,497.33z M444.96,535.99c0.28,0.16,0.56,0.32,0.84,0.49
		c0.67-0.49,1.36-0.97,2.02-1.48c4.64-3.6,6.46-9.04,9.04-13.97c1.73-3.3,0.8-5.95-3.04-8.84
		C450.62,520.14,446.01,527.4,444.96,535.99z M422.39,519.78c-0.25-0.04-0.5-0.08-0.75-0.11c-0.23,0.38-0.61,0.73-0.68,1.14
		c-1.08,5.74-2.18,11.48-3.12,17.24c-0.13,0.8,0.32,1.95,0.89,2.57c2.19,2.37,4.56,4.57,6.82,6.89c1.69,1.74,3.53,2.63,6.39,1.38
		c-1.02-4.96-3.34-8.94-7.91-11.05c-2.37-1.1-2.84-2.37-2.24-4.59c0.29-1.08,0.55-2.2,0.57-3.31
		C422.44,526.55,422.39,523.16,422.39,519.78z M251.12,581.59c0.26,0.26,0.53,0.53,0.79,0.79c1.03-0.58,2.25-0.98,3.06-1.78
		c3.87-3.87,7.73-7.75,11.39-11.82c2.37-2.64,2.14-4.19-0.71-8.02C260.46,567.64,253.3,572.9,251.12,581.59z M436.36,463.74
		c0.39,5.76,0.63,11.46,1.21,17.12c0.28,2.74,2.49,3.38,5.33,3.36c0.21-1.46,0.51-2.77,0.55-4.09c0.1-3.12,0.14-6.24,0.08-9.36
		C443.46,465.9,442.03,464.46,436.36,463.74z M324.48,383.12c-2.04,5.46-1.82,45.6,0.38,49.97
		C326.47,415.9,326.04,399.53,324.48,383.12z M453.54,532.24c-6.13,5.27-12.34,13.78-12.27,16.86c2.48,0.54,4.33-0.84,5.92-2.33
		c2.44-2.29,4.73-4.76,6.89-7.31C456.41,536.69,456.25,535.53,453.54,532.24z M230.94,456.01c-0.17,0.28-0.34,0.57-0.51,0.85
		c1.95,3.4,3.75,6.91,5.91,10.17c1.17,1.76,3.13,2.71,5.72,2.43c0-1.94,0.19-3.78-0.06-5.56c-0.23-1.66-0.43-3.96-1.52-4.73
		C237.71,457.21,234.32,456.38,230.94,456.01z M474.43,391.92c0.26,9.71,7.93,21.79,14.55,22.79
		C484.53,406.53,479.99,398.93,474.43,391.92z M538.62,452.83c-4.07,2.17-19.07,21.13-19.9,25.15
		C524.36,474.87,537.79,457.89,538.62,452.83z M155.56,364.71c-2.51,7.6-2.43,30.22-0.09,33.53
		C156.97,386.77,156.42,375.73,155.56,364.71z M93.59,468.1c8.01,5.5,16.94,9.86,21.91,18.88
		C115.39,479.61,103.4,468.56,93.59,468.1z M21.75,408.51c11.35-1.02,21.08,2.57,30.16,10.41
		C45.51,407.61,28.41,403.35,21.75,408.51z M229.35,594.35c-1.79-3.5-3.19-6.24-5.02-9.81c-1.98,2.43-3.51,4.01-4.68,5.82
		c-1.49,2.31-0.55,4.24,2.2,4.44C224.01,594.96,226.2,594.57,229.35,594.35z"/>
	<path d="M592.17,398.1c2.91-1,5.76-2.22,8.73-2.95c8.61-2.11,17.24-4.14,25.92-5.95c2.67-0.56,4.3-1.69,4.91-4.34
		c0.8-3.49,1.68-6.97,2.72-11.26c-13.11,0.94-24.89,4.65-37.53,6.88c0.52-1.72,1.07-3.17,1.37-4.66c0.76-3.78,1.77-7.57,1.97-11.39
		c0.16-3.03,1.3-4.18,4.09-4.64c9.73-1.63,19.41-3.55,29.15-5.02c3.06-0.46,4.46-1.65,4.66-4.64c0.14-2.07,0.49-4.13,0.85-7
		c-5.23,0.59-9.89,1.04-14.52,1.66c-42.66,5.72-83.86,17.24-124.43,31.28c-1.24,0.43-2.73,0.63-3.99,0.39
		c-8.32-1.59-16.61-3.32-25.6-5.15c1.65-0.79,2.95-1.58,4.36-2.05c9.58-3.25,19.13-6.58,28.77-9.61
		c28.49-8.96,57.28-16.83,86.58-22.65c14.57-2.89,29.22-5.36,43.86-7.86c6.25-1.07,7.42-2.62,5.75-9.72
		c-3.56,0.33-7.24,0.52-10.88,1.02c-29.61,4.03-58.88,9.76-87.78,17.4c-30.35,8.02-59.98,18.26-89.41,29.11
		c-2.53,0.93-4.92,1.2-7.64,0.89c-7.31-0.84-14.67-1.29-22.71-1.95c4.9-2.11,9.24-4.12,13.68-5.86
		c42.28-16.53,85.35-30.69,129.62-40.83c17.62-4.03,35.6-6.55,53.44-9.57c6.27-1.06,12.64-1.52,18.95-2.38
		c1.13-0.15,2.53-0.67,3.16-1.51c0.51-0.68,0.46-2.38-0.07-3.09c-0.51-0.68-1.98-0.99-2.97-0.9c-6.59,0.63-13.2,1.13-19.73,2.19
		c-19.23,3.11-38.51,5.99-57.59,9.82c-29.16,5.85-57.91,13.49-86.16,22.84c-21.11,6.99-42.34,13.88-62.19,23.96
		c-8.25,4.19-16.29,4.53-24.87,3.86c-2.56-0.2-5.12-0.46-7.91-1.41c8.15-4.27,16.16-8.83,24.47-12.75
		c33.89-15.96,69.29-27.79,105.36-37.7c7.94-2.18,15.94-4.18,23.93-6.21c1.66-0.42,2.68-1.23,2.71-3.03
		c0.06-2.99,0.21-5.99,0.19-8.98c-0.04-7-0.09-13.99-0.28-20.99c-0.07-2.6,0.95-3.86,3.46-4.4c4.27-0.92,8.48-2.13,12.75-3.08
		c2.23-0.5,3.65-1.55,4.69-3.73c2.9-6.09,6.12-12.02,9.18-18.03c0.82-1.62,1.51-3.32,2.26-4.98c-0.19-0.24-0.38-0.49-0.56-0.73
		c-2.36,0.82-4.71,1.64-7.07,2.45c-0.08-0.15-0.17-0.29-0.25-0.44c0.77-0.44,1.51-0.93,2.31-1.31c8.11-3.89,16.25-7.72,24.33-11.66
		c1.61-0.79,2.91-0.93,4.53,0.03c5.89,3.53,11.87,6.91,17.79,10.39c0.72,0.42,1.65,1,1.86,1.69c2.27,7.69,7.12,13.97,11.2,20.65
		c1.67,2.73,2.74,5.26,2.51,8.66c-0.41,5.97-0.13,11.99-0.07,17.99c0.04,3.64,0.33,3.92,3.81,3.94c2.62,0.01,5.26-0.01,7.87-0.21
		c3.89-0.31,4.5-1.15,3.93-4.99c-0.11-0.73-0.38-1.43-0.53-2c-2.14-1.56-5.15,0.53-7.43-2.53c1.68-0.36,2.88-0.77,4.1-0.85
		c2.47-0.17,3.65-1.16,3.2-3.82c-0.52-3.08-0.7-6.21-1.26-9.28c-0.28-1.54-1.1-2.99-1.68-4.47c-0.26-0.67-0.94-1.57-0.72-1.96
		c1.75-3.12,0.3-6.14-0.19-9.12c-4.2-25.82-12.77-50.31-22.83-74.34c-0.39-0.92-1.07-1.86-1.04-2.78c0.04-1.07,0.46-2.39,1.21-3.06
		c0.37-0.33,2.21,0.27,2.72,0.94c1.19,1.57,2.12,3.39,2.89,5.22c9.26,22.05,16.78,44.63,21.5,68.14
		c5.43,26.99,7.45,54.22,5.96,81.65c-1.36,25.02-5.33,49.67-13.01,73.61c-0.88,2.73-1.85,5.44-2.74,8.16
		c-1.1,3.36-1.41,3.5-4.82,2.22c-9.59-3.59-19.19-7.17-28.79-10.75c-1.27-0.48-2.55-0.96-3.82-1.44
		C592.29,398.77,592.23,398.44,592.17,398.1z M593.15,299.62c0.3-0.56,0.61-0.88,0.62-1.21c0.11-7.09,0.22-14.18,0.23-21.27
		c0-1.84-1.3-2.57-3.01-2.63c-4.85-0.16-9.7-0.31-14.56-0.46c-2.45-0.07-3.23,1.36-3.24,3.56c-0.02,4.11-0.12,8.22-0.13,12.34
		c0,2.61-0.07,5.25,0.21,7.84c0.27,2.59,2.11,3.31,4.22,1.76c0.99-0.73,1.77-1.74,2.61-2.66c1.32-1.44,2.6-2.91,3.9-4.37
		C587.74,294.36,588.08,299.83,593.15,299.62z M588.58,261.6c0-0.01,0-0.03,0-0.04c3.99,0,7.99-0.06,11.98,0.02
		c2.35,0.05,3.48-0.92,3.46-3.3c-0.03-3.87-0.04-7.74,0.01-11.61c0.03-2.4-0.81-3.73-3.47-3.69c-7.98,0.11-15.96,0.11-23.94,0.13
		c-2.16,0.01-2.77,1.34-2.8,3.17c-0.06,3.99-0.05,7.99-0.16,11.98c-0.08,2.66,1.24,3.45,3.7,3.37
		C581.09,261.51,584.83,261.6,588.58,261.6z M551.96,283.47c-0.08-1.14-0.05-3.04-0.41-4.85c-0.15-0.73-1.12-1.81-1.76-1.85
		c-2.46-0.13-4.94,0.13-7.42,0.18c-1.93,0.04-2.62,1.09-2.58,2.88c0.06,2.37,0.05,4.73,0.1,7.1c0.1,4.38,0.36,4.62,4.73,4.69
		C552.33,291.74,552.33,291.74,551.96,283.47z M618.4,284.02c0-1.75,0.16-3.52-0.06-5.24c-0.12-0.92-0.74-2.36-1.37-2.51
		c-1.75-0.4-1.9,1.14-1.93,2.42c-0.05,2.25,0,4.5-0.06,6.74c-0.05,1.79-0.98,2.69-2.86,2.69c-1.9,0-2.74-0.88-2.75-2.72
		c-0.01-2.37,0.11-4.76-0.16-7.11c-0.09-0.81-1.15-1.52-1.77-2.27c-0.51,0.73-1.41,1.44-1.47,2.2c-0.2,2.61-0.12,5.24-0.12,7.86
		c0,5.56,0.01,5.58,5.48,5.5C619.88,291.46,618.77,291.91,618.4,284.02z"/>
	<path d="M303.32,326.83c0-4.61-0.26-8.36,0.12-12.04c0.16-1.53,1.46-3.12,2.6-4.34c7.22-7.67,13.8-15.81,19.25-24.84
		c0.95-1.57,1.72-3.25,2.1-5.34c-0.57,0.31-1.27,0.5-1.68,0.95c-5.1,5.56-11.77,8.81-18.23,12.32c-2.07,1.12-4.62,2.5-6.72-1.08
		c1.5-0.9,2.9-1.84,4.38-2.63c6.99-3.69,13.6-7.92,19.27-13.51c7.51-7.4,12.07-16.5,14.96-26.46c3.9-13.42,5.47-27.16,5.07-41.13
		c-0.08-2.76-0.01-5.52-0.53-8.37c-9.21,24.86-24.19,44.87-46.39,59.67c-1.41-4.64-1.2-4.97,1.77-7.53
		c5.1-4.4,10.06-8.97,15.14-13.4c2.14-1.87,2.98-4.16,3.04-6.94c0.55-25.44-3.47-50.04-13.4-73.55c-1.94-4.59-4.32-9.01-6.57-13.47
		c-0.59-1.17-1.45-2.19-2.54-3.79c-0.73,1.43-1.19,2.24-1.58,3.09c-1.83,3.96-3.7,7.9-5.41,11.91c-0.68,1.58-1.26,3.28-1.43,4.98
		c-2.64,25.94-10.88,49.93-24.88,71.93c-2.01,3.16-2.38,3.23-6.82,1.68c0.74-1.32,1.39-2.61,2.15-3.84
		c12.21-19.66,20.49-40.81,24.18-63.7c1.56-9.67,1.57-9.73-6.55-15.1c-12.93-8.56-27.4-13.2-42.41-16.35
		c-9.34-1.96-8.14-1.85-11.56,5.98c-5.72,13.11-10.55,26.6-11.67,40.91c-0.82,10.42-0.26,20.96-0.1,31.44
		c0.06,4.32,0.67,8.63,1.02,12.92c-3.95,0.43-4.71,0.18-4.93-3.02c-0.68-9.71-1.08-19.44-1.54-29.17c-0.1-2.12-0.11-4.26,0.06-6.37
		c0.22-2.71-0.79-4.23-3.54-4.71c-9.96-1.73-19.86-3.99-29.88-5.2c-15.49-1.87-31.09-2.86-46.6-4.61c-4.63-0.52-9.11-2.33-14.24-3.7
		c-2.6,4.93-5.35,10.32-7.31,16.12c-5.35,15.82-7.87,31.98-6.35,48.69c0.26,2.88-0.91,3.54-5.87,3.36c-0.11-1.28-0.3-2.6-0.33-3.93
		c-0.43-16.14,1.64-31.96,7.1-47.17c6.04-16.82,16.01-30.98,30.04-42.17c2.83-2.26,5.67-4.53,8.69-6.51
		c2.26-1.48,3.02-3.32,3.06-5.93c0.15-9.14,2.56-17.77,6.45-25.98c2.57-5.41,6.62-9.64,11.28-13.34c1.19-0.94,2.16-2.14,3.24-3.22
		c-0.15-0.22-0.31-0.44-0.46-0.67c-0.67,0.14-1.43,0.11-2,0.43c-10.64,6.02-21.88,10.99-31.56,18.7
		c-13.22,10.54-24.67,22.69-33.36,37.19C83.4,160.11,78,175.51,75.59,191.87c-0.77,5.21-1,10.49-1.63,15.72
		c-1.27,10.62-0.53,22.83,2.14,33.14c-3.14,1.9-5.78,2.95-7.6,3.55c-1.24,0.41-2.42,0.72-3.3,0.14c-0.6-0.4-0.86-1.34-1.18-3.14
		c-0.89-5.03-1.83-10.11-2.08-15.2c-1.01-20.18,1.45-39.9,8.37-58.98c7.07-19.48,18.41-36.23,32.69-51.09
		c15.56-16.19,33.63-28.64,54.82-36.34c20.46-7.43,41.53-10.95,63.3-9.27c33.68,2.61,62.75,15.64,87.03,39.16
		c20.82,20.17,35.84,43.82,42.78,72.23c6.21,25.42,4.41,50.56-2.74,75.52c-6.37,22.25-17,42.1-32.92,58.99
		c-2.39,2.54-5,4.89-7.58,7.25C306.6,324.57,305.31,325.36,303.32,326.83z M283.86,152.55c0.92-1.32,2.06-2.48,2.65-3.89
		c3.21-7.59,4.67-15.54,4.04-23.77c-0.11-1.38-1.15-3.06-2.27-3.94c-21.04-16.5-45.27-24.72-71.7-26.15
		c-21.68-1.17-42.79,2.41-63.14,10.23c-2.49,0.96-4.12,2.12-4.78,4.61c-1.57,5.9-3.23,11.78-4.59,17.73
		c-0.44,1.93-0.07,4.05-0.07,6.42c1.72-0.37,2.93-0.58,4.11-0.9c16.72-4.64,33.77-6.92,51.1-6.15c9.09,0.4,18.16,1.56,27.18,2.8
		c16.23,2.23,31.61,7.26,45.91,15.33C276.17,147.04,279.74,149.79,283.86,152.55z M218.1,133.67c-1.72-0.33-2.9-0.63-4.11-0.78
		c-16.59-2.15-33.14-1.75-49.59,1.13c-8.36,1.47-16.8,3.1-24.19,7.53c-8.71,5.23-16.6,11.54-22.8,19.73c-1,1.32-2.07,2.59-3.6,4.49
		c3.29,1.05,5.8,2.25,8.42,2.61c8.89,1.22,17.81,2.24,26.74,3.17c10.18,1.05,20.4,1.7,30.55,2.95c7.04,0.87,14,2.45,20.99,3.76
		c3.31,0.62,3.49,0.56,4.37-2.75c0.22-0.84,0.42-1.7,0.59-2.55c2.45-12.55,6.38-24.63,11.66-36.27
		C217.46,135.92,217.64,135.08,218.1,133.67z M336.1,178.45c-0.14,0.05-0.28,0.1-0.42,0.14c-2.8-5.97-5.39-12.06-8.45-17.9
		c-6.94-13.25-15.6-25.28-26.67-35.44c-1.2-1.1-2.63-1.93-4.32-3.16c-0.29,3.59-0.65,6.43-0.69,9.28c-0.02,1.28,0.4,2.68,0.99,3.83
		c4.58,8.86,9.95,17.37,13.74,26.55c7.78,18.88,11.2,38.79,11.65,59.21c0.05,2.15,0.34,4.3,0.52,6.45c0.34,0.09,0.68,0.17,1.02,0.26
		c0.84-0.97,1.82-1.86,2.51-2.93c6.6-10.12,11.59-20.94,14.47-32.74c0.89-3.64,0.88-7.04-0.05-10.65
		c-4.07-15.94-10.97-30.49-20.77-43.7c-6.03-8.13-12.1-16.23-20.09-22.62c-1.06-0.85-2.3-1.48-3.69-2.37
		c-0.83,3.62,0.68,5.59,2.76,7.39c13.73,11.9,23.97,26.4,31.51,42.82C332.45,167.93,334.13,173.25,336.1,178.45z M154.63,100.03
		c0.17,0.27,0.34,0.53,0.52,0.8c0.79-0.15,1.61-0.23,2.38-0.46c3.47-1.03,6.89-2.26,10.4-3.13c22.83-5.64,45.96-6.98,69.18-3.47
		c18.8,2.84,36.19,9.49,50.97,21.94c0.22,0.19,0.69,0.09,1.77,0.19c-0.74-3-1.51-5.69-2.04-8.43c-0.44-2.26-1.63-3.75-3.53-5.01
		c-26.05-17.26-54.62-24.74-85.76-22.04c-11.97,1.04-23.36,4.14-33.5,10.92C161.24,93.88,157.89,96.91,154.63,100.03z"/>
	<path d="M587.36,193.08c-0.55-0.96-1.1-1.93-1.94-3.4c-1.14,3.21-1.27,7.15-4.58,7.65c-2.76,0.42-6.24,2.19-8.7-1.34
		c-2.21,2.23-4.44,2.99-7.06,1.03c-0.46-0.35-1.35-0.24-2.02-0.16c-1.6,0.17-3.19,0.69-4.77,0.63c-8.1-0.33-16.13,1.06-24.25,0.7
		c-8.23-0.36-16.49-0.07-24.74-0.07c-47.11,0-94.22,0.01-141.32-0.04c-1.7,0-3.77,0.81-5.55-1.81c1.68-0.39,2.99-0.94,4.3-0.96
		c4.62-0.07,9.25,0.11,13.87,0.08c4.14-0.03,5.32-0.92,6.26-4.96c0.79-3.4,1.29-6.87,1.89-10.32c0.1-0.6,0.15-1.28-0.02-1.86
		c-1.57-5.52-3.03-11.08-4.92-16.49c-0.4-1.13-2.38-1.85-3.77-2.45c-1.85-0.81-3.83-1.32-5.75-1.96c-0.03-0.35-0.07-0.69-0.1-1.04
		c0.9-0.72,1.76-1.5,2.7-2.16c3.09-2.13,3.25-3.26,0.84-6.1c-0.22-0.26-0.3-0.64-0.41-0.88c2.41,0,4.78-0.07,7.14,0.03
		c1.22,0.05,2.45,0.37,3.65,0.65c1.71,0.41,3.41,0.9,5.17,1.38c-0.64,0.38-1.57,0.93-3.13,1.85c2.4,0.97,3.72,1.5,6.02,2.42
		c-2.21,0.91-3.67,1.5-5.28,2.16c0.84,3.21,3.3,4.38,5.91,5.21c6.86,2.2,13.88,3.03,21.08,2.23c7.47-0.84,9.8,0.59,12.62,7.51
		c0.61,1.49,1.17,3,1.6,4.59c-3.11-3-2.84-8.48-8.2-10.73c2.24,5.8,0.73,11.82,4.41,16.78c0.69,0.93,0.4,2.88,0.04,4.21
		c-0.55,2.03-1.66,3.91-2.32,5.92c-0.96,2.9-0.44,3.71,2.55,3.83c3.24,0.13,6.5-0.01,9.74-0.02c7.85-0.01,15.71,0,24.39,0
		c-0.48-1.98-0.43-3.6-1.2-4.56c-1.53-1.9-1.39-3.76-1.14-5.96c0.41-3.56,0.3-7.18,0.54-10.77c0.14-2.08,0.1-4.33,0.88-6.19
		c2.17-5.17,2.48-10.36,1.42-15.79c-0.94-4.78-1.77-9.58-2.4-14.4c-0.31-2.42-0.05-4.91-0.05-7.6c-3.14,0.52-3.7,3.08-3.98,5.64
		c-0.6,5.59-1.18,11.18-1.49,16.79c-0.19,3.45-0.12,6.95,0.28,10.38c0.62,5.25-1.6,9.33-4.84,13.88c-0.49-5.35-1.21-10.04,1.1-14.5
		c2.19-4.23,2.68-8.81,2.85-13.45c0.15-4.24,0.01-8.5,0.16-12.74c0.25-6.95,3.79-10.51,10.68-10.05c7.09,0.47,14.14,1.61,21.21,2.37
		c11.09,1.19,22.17,1.21,33.25-0.38c3.06-0.44,6.2-0.39,9.31-0.5c1.87-0.06,3.75,0.13,5.62,0c4.5-0.31,5.01-1.34,2.54-5
		c-1.05-1.56-1.2-2.9,0.73-4.38c1.26,3.45,3.56,3.77,6.6,2.86c1.34-0.4,2.96,0.23,4.44,0.2c2.13-0.04,4.14-0.37,3.41-3.37
		c2.75,1.99,3,2.65,1.04,5.15c-1.03,1.31-1.18,2.33-0.43,3.7c1.5,2.73,2.99,5.47,4.4,8.24c0.47,0.92,1.23,2.48,0.89,2.86
		c-0.71,0.78-2.07,1.28-3.18,1.32c-1.72,0.06-3.51-0.16-5.18-0.62c-2.6-0.71-4.45,0.1-5.68,2.32c-1.81,3.28-3.42,6.66-5.24,9.93
		c-2.59,4.67-5.3,9.27-7.91,13.93c-0.47,0.83-1.07,1.86-0.95,2.71c1.11,8.28,1.78,16.66,7.1,23.74c3.37,4.49,6.34,5.5,12.88,3.42
		c-1.78-4.77-0.88-9.33,3.18-12.21c2.62-1.86,6.45-1.75,9.31,0.41c4.41,3.32,5.6,7.64,2.03,13.17c2.33-0.2,3.76-0.32,5.63-0.47
		c-0.08-1.7-0.09-3.14-0.22-4.58c-0.34-3.98,1.31-6.65,5.01-8.24c0.79-0.34,1.67-1.55,1.7-2.4c0.21-4.74,0.32-9.5,0.12-14.24
		c-0.06-1.33-1.28-2.62-1.97-3.94c2.36-0.98,3.98-0.23,4.32,2.8c0.35,3.09,0.23,6.24,0.28,9.36c0.02,1.25-0.03,2.5-0.06,3.75
		c-0.15,5.76,1.06,4.83,5.37,5.31c0.62,0.07,1.76-0.32,1.9-0.75c0.97-2.92,3.36-2.56,5.57-2.58c2.75-0.03,5.5,0,8.25,0.04
		c1.8,0.03,3.07,0.86,2.56,2.77c-0.7,2.6,0.5,4.59,1.53,6.73c1.38,2.87,0.98,3.66-2.25,3.58c-3.06-0.08-6.11-0.93-9.17-0.97
		c-2.03-0.03-4.08,0.75-6.12,1.16C587.3,193.04,587.36,193.08,587.36,193.08z M478.91,175.45c-1.67-0.7-2.81-1.17-3.95-1.64
		c-0.28,1.26-0.9,2.56-0.79,3.78c0.45,4.97,2.72,9.26,5.37,13.41c1.94,3.04,4.48,4.41,8.1,4.33c7.61-0.16,15.23-0.07,22.85-0.18
		c3.44-0.05,6.87-0.36,11.1-0.59c-0.92-1.75-1.21-3.29-2.03-3.66c-2.91-1.32-2.39-3.53-2.35-5.98c0.11-5.71-0.12-11.43-0.24-17.14
		c-0.05-2.08-1.25-2.83-3.23-2.59c-3.35,0.4-6.7,0.73-10.04,1.16c-4.43,0.57-8.42-0.41-11.98-3.13c-2.52-1.93-5.05-3.84-7.57-5.75
		c0.05-0.11,0.09-0.21,0.14-0.32c2.7,1.31,5.41,2.63,8.11,3.94c0.16-0.27,0.32-0.54,0.48-0.81c-1.35-0.99-2.67-2.03-4.07-2.96
		c-4.38-2.9-8.23-2.04-11.23,2.27c-1.77,2.55-3.79,4.92-5.66,7.41c-0.46,0.61-0.77,1.32-1.16,1.98c0.22,0.26,0.44,0.53,0.66,0.79
		c1.18-0.67,2.47-1.19,3.51-2.03c2.23-1.8,4.23-3.89,6.52-5.61c2.32-1.74,4.46-1.2,6.06,1.16c1.74,2.57,1.54,4.77-0.56,7.11
		c-0.95,1.06-1.76,2.25-2.72,3.5C481.99,172.84,479.98,173.07,478.91,175.45z M403.43,195.3c2.62,0,4.49-0.03,6.36,0.01
		c3.05,0.06,5.13-1.31,6.69-3.93c3.06-5.15,2.92-7.25-1.06-12.49c-1.23-1.62-2.51-2.17-4.49-1.54c-3.57,1.12-7.23,1.95-10.77,3.17
		c-1.29,0.44-2.91,1.43-3.33,2.56c-1.09,2.89-1.69,5.98-2.3,9.02c-0.37,1.85,0.67,2.76,2.53,2.84
		C399.44,195.02,401.81,195.2,403.43,195.3z M524.62,173.16c-3.35,4.63-3.67,13.88-0.86,17.98c1.71,2.5,3.87,4.31,7.11,3.85
		c1.11-0.16,2.94-0.76,3.03-1.36c0.16-1.13-0.35-2.95-1.22-3.51c-2.18-1.41-2.63-3.39-3.06-5.64
		C528.85,180.46,527.76,176.53,524.62,173.16z M474.96,194.48c-0.64-6.23-5.49-18.9-8.05-20.68c-2.18,5.63-3.71,11.11-0.93,16.97
		C468.25,195.56,469.44,196.15,474.96,194.48z M424.84,182.37c-0.33-0.06-0.67-0.12-1-0.18c-2.02,3.5-4.21,6.92-5.99,10.54
		c-0.85,1.73,0.43,2.9,2.38,2.35c0.91-0.26,2.1-0.78,2.46-1.52c1.23-2.55,2.33-5.2,3.1-7.92
		C426.05,184.71,425.19,183.47,424.84,182.37z"/>
	<path d="M527.54,280.36c-0.7,3.1-2.6,2.59-4.07,2.6c-8.99,0.1-17.99,0.16-26.98,0.16c-47.6,0-95.2-0.01-142.79-0.04
		c-1.56,0-3.11-0.22-4.67-0.33c-0.11-0.33-0.22-0.66-0.34-0.99c0.78-0.53,1.51-1.35,2.36-1.52c1.45-0.29,2.98-0.2,4.48-0.21
		c21.11-0.13,42.22-0.24,63.33-0.38c4.69-0.03,5.36-0.71,4.16-5.34c-1.18-4.56-2.99-8.95-4.31-13.48c-0.43-1.48-0.46-3.21-0.18-4.73
		c0.58-3.1,0.08-5.74-1.53-8.55c-2.23-3.88-3.8-8.13-5.68-12.21c-0.73-1.58-1.5-3.16-2.35-4.68c-1.51-2.73-3.83-3.76-6.98-4.22
		c-4.39-0.64-8.67-2.12-12.96-3.38c-1.04-0.3-2.02-1.02-2.85-1.75c-2.16-1.88-1.94-3.05,0.54-4.54c6.98-4.19,13.94-8.44,20.68-12.52
		c-0.07,0.09-0.53,0.46-0.66,0.93c-0.31,1.18-0.47,2.39-0.7,3.6c1.4,0.12,2.86,0.52,4.19,0.26c1.06-0.21,1.97-1.24,3.26-1.56
		c-1.4,1.5-2.81,3-4.21,4.5c0.07,0.28,0.14,0.56,0.21,0.83c1.09-0.26,2.19-0.47,3.27-0.78c1.63-0.46,3.21-1.21,4.86-1.42
		c4.45-0.56,8.95-0.72,13.38-1.39c5.09-0.77,9.94,0.29,14.83,1.31c13.58,2.85,27.33,2.4,41.06,2.12
		c10.36-0.22,14.42,3.42,14.9,13.67c0.52,11.01,1.7,21.9,5.4,32.4c1.52,4.3,0.89,8.6-0.69,13.09c-2.75-5.98-5.1-11.7-3.14-18.24
		c0.33-1.11-0.03-2.47-0.21-3.7c-0.89-6.05-1.81-12.09-2.75-18.13c-0.17-1.07-0.49-2.11-0.9-3.82c-0.78,1.12-1.36,1.62-1.51,2.21
		c-1.5,6.32-3.75,12.6-4.15,18.99c-0.41,6.47-1.11,12.77-2.46,19.08c-0.59,2.76-0.21,5.73-0.32,8.6c-0.07,2.03,0.79,2.91,2.89,2.92
		c8.74,0.04,17.48,0.17,26.21,0.31C522.55,280.06,524.93,280.24,527.54,280.36z M469.77,259.97c-1.69-1.31-2.95-2.32-4.26-3.28
		c-0.36-0.26-1.22-0.28-1.25-0.51c-0.5-3.22-3.23-2.62-5.25-3.05c-3.16-0.67-6.39-1.04-9.55-1.73c-2.39-0.52-3.59,0.25-3.7,2.69
		c-0.34,7.32-0.77,14.64-0.95,21.97c-0.07,3.13,0.52,3.48,3.89,3.52c5.61,0.05,11.21,0.02,16.82,0.06c6.44,0.05,7.97-0.8,10.29-6.79
		c1.12-2.88,1.77-5.96,2.52-8.97c0.18-0.74-0.08-1.6-0.15-2.57c-1.99,0.07-3.76,0.9-5.25-0.98
		C472.38,259.67,470.52,260.04,469.77,259.97z M436.01,251.64c-3.8,2.41-7.17,4.81-11.27,2.57c-3.1,7.29-3.02,10.2-0.19,16.49
		c0.96,2.13,1.41,4.5,2.27,6.68c0.31,0.79,1.04,1.79,1.77,2c7.44,2.15,11.64-0.6,12.54-8.25c0.23-1.97,0.46-4.12-0.1-5.95
		C439.69,260.8,437.88,256.57,436.01,251.64z M470.23,251.28c1.26,0,1.94,0.2,2.39-0.03c4.01-2.08,6.29,0.12,8.27,3.21
		c0.54,0.84,1.33,1.55,1.7,2.45c0.35,0.83,0.57,1.9,0.36,2.74c-1.29,5.2-2.81,10.34-4.04,15.55c-0.3,1.26,0.07,3.83,0.36,3.87
		c1.74,0.2,3.61,0.06,5.3-0.43c0.74-0.21,1.42-1.44,1.68-2.34c0.67-2.25,1.31-4.55,1.55-6.87c0.69-6.46-2.83-11.78-5.27-17.29
		C479.13,244.43,476.84,244.27,470.23,251.28z"/>
	<path d="M263.48,619.34c74.4-27.88,150.51-41.8,228.89-42.36C421.89,620.1,345.32,631.73,263.48,619.34z"/>
	<path d="M480.56,70.18c7.08-10.9,11.69-11.77,23.89-4.86c2.14-3.47,3.52-7.83,8.05-9.14c4.79-1.38,7.49,2.36,11.01,5.09
		c5.12-11.09,13.93-15.31,25.36-14.32c11.97,1.04,17.95,9.12,21.83,19.57c2.36-1.2,4.43-2.87,6.71-3.23
		c2.44-0.39,5.28-0.02,7.58,0.92c2.11,0.86,3.74,2.91,5.57,4.44c-0.17,0.44-0.33,0.87-0.5,1.31c-8.9,0-17.8,0-26.69,0
		c-8.95,0-17.9,0-27.87,0c1.65,1.7,2.63,2.9,3.79,3.86c10.12,8.38,19.79,17.21,28.26,27.3c0.88,1.05,1.84,2.09,2.42,3.3
		c0.27,0.56-0.09,1.69-0.56,2.22c-0.29,0.33-1.43,0.24-1.97-0.06c-0.85-0.47-1.58-1.22-2.23-1.96
		C555.07,93,543.15,83.28,531.53,73.24c-2.74-2.37-5.65-3.3-9.22-3.25c-11.74,0.17-23.49,0.14-35.23,0.19
		C485.09,70.19,483.11,70.18,480.56,70.18z"/>
	<path d="M356.76,371.34c14.01-1.93,27.95-0.7,41.87,0.25c12.31,0.84,24.6,2.1,36.89,3.22c3.85,0.35,7.69,0.78,11.51,1.37
		c1.29,0.2,2.81,0.69,3.66,1.59c6.26,6.61,12.65,13.18,15.77,22.04c0.33,0.94,0.63,1.89,0.88,2.86c0.08,0.33-0.03,0.71-0.09,1.58
		c-1.53-0.43-2.91-0.81-4.28-1.22c-19.61-5.85-39.17-11.84-58.84-17.46c-6.09-1.74-12.47-2.46-18.71-3.68
		c-1.21-0.24-2.66-0.3-3.54-1.01C374.53,374.98,366.08,372.07,356.76,371.34z"/>
	<path d="M185.63,29.53c1.56-1.61,2.78-2.48,3.48-3.66c5.07-8.61,14.07-10.66,22.35-5c1.11,0.76,2.2,1.57,3.3,2.35
		c0.21-0.17,0.42-0.35,0.63-0.52c-0.7-0.83-1.37-1.7-2.1-2.5c-2.41-2.62-2.45-2.83-0.07-5.54c4.44-5.06,10.18-7.59,16.76-8.11
		c11.82-0.93,22.42,5.27,27.75,16.01c0.6,1.21,1.19,2.42,2.02,4.1c7.59-5.29,14.41-5.24,20.7,2.85
		C248.49,29.53,217.23,29.53,185.63,29.53z"/>
	<path d="M34.88,91.97c2.78-4.69,6.15-7.38,10.57-8.96c4.77-1.71,8.42,0.59,12.36,3.69c4.34-11.41,12.22-18.04,23.98-18.37
		c11.97-0.34,19.74,6.36,24.13,17.36c1.52-0.65,2.62-1.21,3.78-1.59c3.72-1.22,7.52,1.06,8.25,4.87c0.38,1.97-0.36,3.18-2.4,3.39
		c-1.11,0.11-2.24,0.09-3.37,0.09c-24.46-0.07-48.91-0.14-73.37-0.23C37.73,92.22,36.64,92.08,34.88,91.97z"/>
	<path d="M513.9,391.72c13.47,2.52,41.48,11.86,46.04,15.52c-2.61,4.14-4.83,8.68-7.98,12.45c-5.58,6.68-11.7,12.9-17.64,19.27
		c-0.99,1.06-2.24,2.49-3.79,1.03c-1.38-1.29-3.94-1.61-3.27-4.72c3.43-15.91-1.58-29.48-11.96-41.45
		c-0.49-0.56-0.94-1.16-1.39-1.76C513.85,391.99,513.9,391.83,513.9,391.72z"/>
	<path d="M597.46,361.51c-3.34,9.07-8.3,16.71-16.71,21.35c-5.22,2.88-10.86,5-16.36,7.35c-0.83,0.35-1.97,0.28-2.88,0.07
		c-12.61-2.95-25.22-5.97-37.97-9.26C547.75,373.21,572.41,366.83,597.46,361.51z"/>
	<path d="M632.41,135.38c-21.58,0-43.16,0-64.88,0c1.32-3.77,2.09-4.05,7.51-2.81c4.03-10.1,10.55-17.32,22.54-17.41
		c11.73-0.08,18.7,6.26,22.83,16.82c3.09-0.77,6.07-3.15,9.22-0.98c1.31,0.9,2.22,2.38,3.31,3.6
		C632.77,134.86,632.59,135.12,632.41,135.38z"/>
	<path d="M317.31,50.97c1.67,1.28,3.96,2.29,3.92,3.17c-0.1,2.19-2.67,1-3.9,1.73c-1.74,1.03-3.55,2.33-4.64,3.98
		c-4.07,6.13-3.97,6.2-7.82-0.27c-1.4-2.34-2.94-4.4-6.17-3.87c-1.64,0.27-3.3-0.16-3.28-2.01c0.01-0.66,1.92-1.3,2.98-1.93
		c0.2-0.12,0.45-0.14,0.68-0.2c-3.89-7.27-20.09-11.66-36.41-10.05c7.56-3.91,15.63-4.41,23.82-2.91
		c8.34,1.53,15.21,6.11,21.62,11.95c12.91-12.76,27.68-16.15,44.49-9.19c-4.78,0-9.57-0.26-14.32,0.06
		c-6.6,0.45-12.67,2.76-18.07,6.62C319,48.92,318.07,50.19,317.31,50.97z"/>
	<path d="M337.45,299.38c1.12-0.36,2.24-0.99,3.37-1.03c3.99-0.13,8-0.04,12-0.04c55.74,0,111.47,0,167.21,0c1.45,0,2.9,0,5.09,0
		c-2.78,2.37-5.29,2.62-7.91,2.62c-21.24,0-42.49,0-63.73,0.03c-36.87,0.04-73.73,0.11-110.6,0.14c-1.76,0-3.52-0.26-5.28-0.4
		C337.55,300.26,337.5,299.82,337.45,299.38z"/>
	<path d="M385.2,82.39c-23.54,0-46.43,0-69.77,0c3.56-1.64,6.66-3.47,10.01-4.45c1.67-0.49,3.93,0.28,5.67,1.06
		c1.85,0.82,3.04,1.18,4.43-0.74c2.1-2.91,4.89-4.02,8.54-2.73c0.79,0.28,2.36-0.4,3.01-1.14c8.07-9.23,19.52-8.39,26.22,2.04
		c0.34,0.53,0.69,1.05,0.98,1.6c1.15,2.22,2.66,2.94,5.2,2C382.47,78.94,382.83,79.23,385.2,82.39z"/>
	<path d="M505.69,209.79c2-0.21,4.01-0.6,6.01-0.61c30.35-0.04,60.69-0.04,91.04-0.04c3.5,0,7-0.1,10.49,0.07
		c0.89,0.04,1.74,0.94,2.61,1.44c-0.85,0.56-1.65,1.27-2.58,1.65c-0.65,0.26-1.48,0.1-2.23,0.1c-32.59-0.01-65.19-0.02-97.78-0.05
		c-1.5,0-3.02,0.05-4.49-0.18c-1.1-0.17-2.13-0.74-3.19-1.14C505.61,210.62,505.65,210.2,505.69,209.79z"/>
	<path d="M170.49,36.36c-1.41,0.17-2.8,0.47-4.2,0.48c-8.12,0.03-16.24,0.06-24.36-0.07c-3.23-0.05-16.01,1.96-10.13-2
		c0.62-0.42,1.26-0.8,1.84-1.26c4.21-3.38,5.14-3.48,9.88-0.85c0.69-0.73,1.56-1.43,2.16-2.32c4.3-6.32,14.51-5.44,17.37,0.59
		c0.86,1.81,2.3,2.41,4.22,2.5C168.78,33.49,170.33,33.81,170.49,36.36z"/>
	<path d="M444.39,317.2c-3.34,2.58-6.27,3.14-9.45,3.1c-16.73-0.18-33.46-0.41-50.19-0.41c-16.61,0-33.21,0.28-49.82,0.38
		c-1.63,0.01-3.25-0.34-4.88-0.52c-0.05-0.32-0.11-0.65-0.16-0.97c0.61-0.47,1.16-1.19,1.84-1.35c1.2-0.28,2.47-0.27,3.72-0.27
		c30.73,0,61.47,0.02,92.2,0.04C432.96,317.2,438.26,317.2,444.39,317.2z"/>
	<path d="M51.4,125.5c8.91-8.17,18.77-10.71,29.94-5.75c-14.12,0.27-18.76,1.41-23.11,6.14c0.74,0.65,1.47,1.3,2.3,2.03
		c-1.95,1.01-3.88,1.62-5.26,2.84c-1.41,1.26-2.27,3.13-3.85,5.43c-1.45-2.14-2.31-3.94-3.65-5.24c-1.29-1.25-3.07-2-4.91-3.14
		c0.35-0.5,0.92-1.32,1.68-2.39c-6.04-5.54-13.46-5.66-20.99-5.36c-0.07-0.27-0.13-0.54-0.2-0.82c2.36-0.59,4.7-1.5,7.09-1.69
		c2.57-0.21,5.25-0.01,7.78,0.51c2.4,0.49,4.84,1.34,6.96,2.55C47.41,121.89,49.27,123.79,51.4,125.5z"/>
	<path d="M318.32,4.48c-25.47-0.03-35.65,1.43-42.58,2.75c-6,1.14-10.89,2.41-14.16,3.34c-1.33,0.81-2.96,0.84-4.18,0.06
		c-1.32-0.84-1.61-2.26-1.67-2.53c0.94-0.32,2.42-0.8,4.24-1.35c6.95-2.09,17.63-4.65,41.71-6.04c5.3-0.3,11.32-0.64,19.48-0.7
		c4.82-0.03,22.17-0.04,45.45,2.7c6.01,0.71,10.93,1.42,14.16,1.92c5.37,0.72,12.92,1.89,21.86,3.86
		c19.98,4.4,34.78,10.11,45.44,14.27c7.65,2.99,17.59,7.15,28.99,12.74c11.45,6.88,19.77,11.89,22.17,13.25
		c0.5,0.28,1.9,1.06,1.92,2.15c0.01,0.66-0.48,1.26-0.97,1.56c-0.95,0.6-2.16,0.26-2.99-0.03c-3-1.05-4.49-1.58-6.74-4.05
		c-5.08-5.58-34.09-17.65-44.43-21.73c-6.44-2.54-25.73-9.88-51.96-15.34c-15.16-3.15-28.55-4.83-39.32-5.74
		C342.26,4.51,333.68,4.5,318.32,4.48z"/>
	<path d="M436.58,81.58c-5.5,3.45-10.92,7-13.63,13.55c1.13,0.69,2.19,1.33,3.41,2.07c-4.11,2.17-7.37,2.66-14.7,2.34
		c-0.05-0.23-0.21-0.57-0.12-0.66c2.76-2.83,2.81-3.94-0.82-5.52c-3.48-1.51-7.3-2.25-11.01-3.2c-1.13-0.29-2.37-0.16-4.37-0.26
		c4.34-2.62,8.24-3,12.09-1.66c3.7,1.29,7.19,3.17,11.06,4.92c4.07-6.5,9.9-10.82,17.73-12.16
		C436.29,80.98,436.42,81.32,436.58,81.58z"/>
	<path d="M356.78,260.53c1.15-0.39,2.3-1.11,3.45-1.11c14.82-0.05,29.65-0.01,44.47,0.03c0.73,0,1.54,0.07,2.18,0.37
		c0.46,0.22,0.99,0.9,0.97,1.35c-0.03,0.45-0.63,1.1-1.1,1.25c-0.81,0.24-1.72,0.21-2.59,0.21c-14.33,0-28.65,0-42.98-0.06
		c-1.4-0.01-2.8-0.38-4.2-0.58C356.91,261.49,356.84,261.01,356.78,260.53z"/>
	<path d="M481.7,90.14c8.84-0.16,13.42,5.8,17.76,12.6c4.59-5.54,10.06-8.55,17.27-7.28c-5.21,1.7-10.16,3.75-13.57,8.87
		c1.5,0.69,2.65,1.22,4.23,1.95c-2.04,0.68-3.76,0.91-5.06,1.77c-1.27,0.84-2.11,2.33-3.57,4.03c-1.06-1.69-1.73-3.11-2.73-4.23
		c-0.93-1.04-2.22-1.76-3.51-2.75c0.76-0.38,1.58-0.8,2.85-1.44C492.81,97.01,487.5,93.4,481.7,90.14z"/>
	<path d="M402.13,337.1c-2.24,0.48-4.48,1.37-6.72,1.38c-16.09,0.09-32.19,0.03-48.29-0.06c-1.62-0.01-3.23-0.51-4.84-0.78
		c0.01-0.44,0.01-0.88,0.02-1.31c1.58-0.2,3.16-0.56,4.74-0.57c14.85-0.02,29.7,0.02,44.54,0.04c3.47,0,6.94,0,10.41,0
		C402.04,336.24,402.09,336.67,402.13,337.1z"/>
	<path d="M379.3,245.36c-4.75,0-9.49,0-14.24-0.01c-1,0-2.02,0.04-2.98-0.17c-0.5-0.11-1.28-0.82-1.22-1.13
		c0.11-0.61,0.6-1.38,1.14-1.63c0.76-0.34,1.7-0.34,2.57-0.34c10.12-0.01,20.24,0,30.36,0.01c0.37,0,0.83-0.12,1.11,0.04
		c0.85,0.5,1.64,1.12,2.45,1.69c-0.77,0.49-1.51,1.34-2.32,1.41c-2.48,0.2-4.99,0.11-7.49,0.12
		C385.55,245.37,382.42,245.37,379.3,245.36z"/>
	<path d="M564.11,227.45c-6.12,2.92-12.29,3.11-18.58,3.01c-9.23-0.15-18.47,0-27.71-0.05c-1.37-0.01-2.73-0.4-4.38-0.66
		c1.18-2.74,3.15-2.17,4.73-2.18c12.73-0.08,25.46-0.09,38.2-0.12C558.84,227.45,561.32,227.45,564.11,227.45z"/>
	<path d="M12.91,318.31c1.15-0.39,2.3-1.11,3.45-1.12c10.85-0.09,21.7-0.07,32.55-0.02c0.86,0,1.71,0.5,2.56,0.77
		c0.03,0.38,0.07,0.76,0.1,1.15c-1.26,0.4-2.52,1.14-3.79,1.15c-10.36,0.09-20.71,0.08-31.07,0.01c-1.25-0.01-2.49-0.54-3.74-0.83
		C12.97,319.04,12.94,318.68,12.91,318.31z"/>
	<path d="M54.23,244.15c-2.19,1.32-22.45,2.07-30.75,1.13c-0.97-0.11-1.89-0.67-2.83-1.02c0-0.35,0-0.71,0-1.06
		c1.04-0.37,2.09-1.04,3.13-1.05c8.99-0.08,17.99-0.05,26.98-0.04C52.3,242.11,53.74,242.34,54.23,244.15z"/>
	<path d="M13.31,299.42c0.77-0.37,1.54-1.04,2.31-1.05c11.36-0.06,22.72-0.04,34.09-0.01c0.43,0,0.86,0.35,1.43,0.6
		c-0.61,2.37-2.43,1.98-3.9,1.98c-9.87,0.03-19.73,0.01-29.6-0.04c-1.38-0.01-2.77-0.28-4.15-0.43
		C13.43,300.13,13.37,299.77,13.31,299.42z"/>
	<path d="M50.5,282.31c-0.96,0.26-1.91,0.75-2.87,0.75c-10.11,0.06-20.22,0.05-30.32,0.04c-0.5,0-1.08,0.07-1.47-0.15
		c-0.57-0.32-0.99-0.89-1.48-1.35c0.52-0.45,0.96-1.12,1.56-1.31c0.8-0.26,1.72-0.21,2.59-0.2c9.23,0.04,18.47,0.08,27.7,0.18
		c1.39,0.02,2.78,0.39,4.17,0.6C50.43,281.35,50.47,281.83,50.5,282.31z"/>
	<path d="M543.63,242.48c-1.01,2.08-2.49,2.87-4.52,2.86c-6.96-0.02-13.92,0.01-20.88-0.02c-0.73,0-1.5-0.11-2.17-0.37
		c-0.38-0.15-0.89-0.74-0.85-1.06c0.07-0.52,0.44-1.2,0.88-1.43c0.63-0.32,1.43-0.37,2.16-0.37c7.95,0,15.9,0.03,23.86,0.07
		C542.55,242.16,543,242.34,543.63,242.48z"/>
	<path d="M13.3,337.29c2.72-1.8,29.82-2.19,35.16-0.61c-1.55,0.76-2.52,1.65-3.5,1.66c-9.74,0.09-19.49,0.05-29.23-0.02
		C15.07,338.31,14.42,337.78,13.3,337.29z"/>
	<path d="M17.25,260.44c1.31-0.36,2.63-1.01,3.94-1.03c6.74-0.09,13.47-0.05,20.21,0.02c1.09,0.01,2.95-0.51,2.71,1.45
		c-0.08,0.66-1.8,1.59-2.79,1.61c-7.11,0.15-14.22,0.12-21.33,0.07c-0.88-0.01-1.76-0.44-2.64-0.68
		C17.31,261.4,17.28,260.92,17.25,260.44z"/>
	<path d="M455.73,61.52c0.56,0.84,1.07,1.61,1.61,2.42c-3.58,0.73-6.8,0.48-9.39-2.25c2.2-2.44,2.24-3.42-0.41-5.47
		c-1.85-1.43-3.99-2.49-5.85-3.62c4.12-1.31,5.52-0.59,11.72,6.25c4.54-2.01,9.19-4.53,14.91-0.77
		C463.53,58.35,459.07,57.77,455.73,61.52z"/>
	<path d="M422.97,131.69c-3.08,1.46-5.85,0.53-8.54-1.8c2.36-1.28,1.81-3.19,0.37-4.8c-2.06-2.29-4.39-4.34-6.45-6.34
		c4.54,0.86,6.74,2.59,10.76,8.81c3.45-1.96,6.78-4.62,11.41-3.85c-2.26,1.4-4.47,2.58-6.48,4.05
		C421.81,129.4,421.89,129.51,422.97,131.69z"/>
	<path d="M24.64,228.91c0.48-0.39,0.92-1.04,1.37-1.05c8.07-0.12,16.14-0.19,24.22-0.18c0.75,0,1.5,0.54,2.25,0.83
		c0.03,0.29,0.07,0.59,0.1,0.88c-1.01,0.35-2.01,0.94-3.04,1.03C38.85,231.31,26.77,230.62,24.64,228.91z"/>
	<path d="M41.2,209.14c2.86,0,5.72-0.1,8.57,0.07c0.78,0.05,1.51,0.91,2.26,1.4c-0.71,0.57-1.4,1.62-2.12,1.64
		c-5.96,0.12-11.93,0.11-17.89-0.03c-0.7-0.02-1.38-1.05-2.07-1.61c0.76-0.5,1.51-1.38,2.3-1.42c2.97-0.17,5.96-0.07,8.94-0.07
		C41.2,209.12,41.2,209.13,41.2,209.14z"/>
	<path d="M398.58,35.03c4.28-0.57,8.05-0.3,11.04,2.77c1.4,1.44,2.5,1.06,3.86-0.02c2.85-2.27,6-3.72,10.2-3.17
		c-8.52,4.28-8.52,4.28-7.53,6.83c-1.32,0.79-2.65,1.59-4.36,2.6c-1.12-1.48-4.21-1.15-4.08-4.46c0.02-0.62-1.25-1.52-2.11-1.89
		C403.46,36.73,401.21,36.01,398.58,35.03z"/>
	<path d="M380.56,120.58c-0.08,0.09-0.15,0.22-0.25,0.27c-4.38,2.15-4.24,2.04-7.16-1.87c-1.05-1.41-2.93-2.26-4.53-3.19
		c-1.28-0.74-2.72-1.21-4.2-1.85c3.84-1.36,4.45-1.12,12.22,4.8c2.6-4.13,6.07-7.14,11.68-7.78c-2.09,1.62-4.02,2.75-5.46,4.32
		C381.56,116.68,378.57,117.65,380.56,120.58z"/>
	<path d="M351.19,22.03c7.21-3.97,7.82-4.15,11.77-3.48c-2.09,0.87-4.24,1.48-6.04,2.62c-1.19,0.76-1.81,2.36-2.82,3.46
		c-0.68,0.74-1.54,1.64-2.43,1.77c-0.76,0.11-2.31-0.66-2.41-1.23c-0.82-4.8-4.91-5.39-8.31-7.04
		C345.22,17.18,348.59,18.89,351.19,22.03z"/>
	<path d="M35.74,195.61c1-0.46,1.96-1.2,3-1.34c6.5-0.87,13.26-0.08,15.43,1.64C52.07,197.68,39.77,198.08,35.74,195.61z"/>
	<path d="M587.3,193.04c0.64,2.22,2.26,2.66,4.34,2.62c4.74-0.1,9.48-0.09,14.22-0.05c1.25,0.01,2.5,0.27,3.72,0.68
		c-2.55,1.48-20.21,1.76-24.3,0.66c-0.64-1.97,0.93-2.82,2.08-3.87L587.3,193.04z"/>
	<path d="M209.81,48.61c4.59-0.96,7.03,1.84,9.54,3.65c3.38-1.74,6.52-3.35,9.66-4.96c0.15,0.27,0.31,0.54,0.46,0.81
		c-1.46,0.96-3.04,1.79-4.35,2.92c-1.03,0.89-3.74,1.62-0.79,3.96c-2.1,0.31-3.46,3.12-5.94,0.98c-0.28-0.24-0.89-0.36-0.92-0.57
		c-0.17-1.83-0.85-3.29-2.55-4.16C213.38,50.46,211.85,49.66,209.81,48.61z"/>
	<path d="M361.69,228.84c1.69-0.54,2.84-1.26,3.95-1.2c4.88,0.29,9.98-1.15,15.12,1.35C377.46,231.01,365.24,230.99,361.69,228.84z"
		/>
	<path d="M280.02,268.68c0.46,4.77,0.4,4.85-3.21,5.28c-1.11,0.13-2.24,0.52-3.3,0.35c-0.8-0.12-2.07-0.9-2.1-1.45
		c-0.05-0.88,0.56-2.4,1.22-2.61C274.92,269.51,277.36,269.21,280.02,268.68z"/>
	<path d="M362.65,210.79c5.01-2.12,10.23-0.71,15.72-1.24C375.73,212.77,366.72,213.53,362.65,210.79z"/>
	<path d="M107.27,226.86c-0.26-0.73-0.53-1.46-0.79-2.18C106.75,225.41,107.01,226.13,107.27,226.86z"/>
	<path d="M246.78,303.26c-8.52,10.96-17.91,21.08-29.08,29.51c9.5-10.02,19-20.04,28.5-30.06
		C246.39,302.89,246.59,303.08,246.78,303.26z"/>
	<path d="M226.05,334.39c6.42-6.45,12.83-12.9,19.25-19.35c0.23,0.22,0.45,0.45,0.68,0.67c-5.42,7.44-11.67,14.05-19.37,19.23
		C226.42,334.76,226.24,334.58,226.05,334.39z"/>
	<path d="M200.45,266.62c0.83,14.54,1.66,29.08,2.49,43.62c-0.31,0.02-0.62,0.03-0.92,0.05c-0.83-14.58-1.65-29.15-2.48-43.73
		C199.85,266.59,200.15,266.61,200.45,266.62z"/>
	<path d="M170.13,529.04c6.19,0.01,11.18,5.36,11.26,12.06c0.08,6.26-5.7,12.49-11.58,12.49c-6.21,0-11.44-5.88-11.44-12.85
		C158.38,533.78,163.16,529.02,170.13,529.04z"/>
	<path d="M148.16,535.12c-0.62-12.33,4.77-22.3,13.33-31.76c-11.12,3.66-23.48,25.96-15.17,49.72c-0.48-1.02-1.08-2-1.43-3.06
		c-3.86-11.64-3.78-23.22,1.84-34.21c5.3-10.36,13.52-17.02,25.88-16.5c7.72,0.33,14.09,3.84,19.39,9.5
		c-0.21,0.1-0.39,0.25-0.48,0.2c-0.22-0.1-0.4-0.3-0.6-0.45c-11.95-9.04-26.63-6.8-35.43,5.37
		C150.91,520.27,148.62,527.38,148.16,535.12z"/>
	<path d="M113.99,400.97c2.45,2.17,4.01,5.7,8.06,4.37c3.1-1.01,1.37-4.06,1.99-6.95c3,4.34,6.08,7.98,8.25,12.1
		c4.25,8.05,8,16.35,11.93,24.57c0.37,0.78,0.52,1.67,0.75,2.51c0.48,1.73-0.16,2.76-1.97,2.7c-4.87-0.15-9.73-0.34-14.59-0.65
		c-2.11-0.13-2.29-2.04-2.68-3.59c-1.1-4.36-1.9-8.81-3.29-13.07c-1.9-5.81-4.22-11.48-6.39-17.2
		C115.43,404.14,114.68,402.57,113.99,400.97z"/>
	<path d="M283.71,398.98c-0.06-4.48,0.85-8.2,3.49-11.29c3.29-3.84,7.36-4.04,11.12-0.7c6.98,6.21,6.95,19.41-0.06,25.18
		c-3.76,3.1-6.93,2.84-10.05-0.91C285.15,407.57,283.45,403.37,283.71,398.98z M300.92,397.9c-0.64-1.62-1.4-4.85-3.08-7.5
		c-2.52-3.98-6.43-3.7-9.09,0.2c-3.55,5.2-3.13,13.95,0.9,18.67c2.46,2.89,5.04,3.02,7.62,0.24
		C299.89,406.72,300.69,403.21,300.92,397.9z"/>
	<path d="M281.31,408.46c-6.68,2.31-11.69-1.63-10.81-8.19c0.1-0.74,1.05-1.71,1.79-1.93c1.41-0.42,2.98-0.59,4.43-0.41
		c0.86,0.1,2.1,0.91,2.34,1.67C279.99,402.42,280.56,405.35,281.31,408.46z"/>
	<path d="M578.72,278.17c4.2,0,7.49,0,11.3,0c-2.1,2.64-3.96,4.97-6.17,7.75C582.11,283.28,580.65,281.08,578.72,278.17z"/>
	<path d="M587.52,253c0,0.75,0.02,1.49-0.01,2.24c-0.02,0.5,0.08,1.1-0.16,1.46c-1.82,2.68-4.55,0.97-6.85,1.3
		c-1.55,0.22-2.68-0.63-2.71-2.34c-0.05-2.24-0.22-4.51,0.12-6.7c0.14-0.86,1.44-2.03,2.37-2.21
		C586.23,245.63,587.37,246.69,587.52,253z"/>
	<path d="M600.55,252.33c0,0.99,0.02,1.99,0,2.98c-0.04,1.81-0.99,2.73-2.8,2.76c-0.87,0.01-1.74,0.04-2.61,0.02
		c-3.45-0.11-3.77-0.44-3.87-3.94c-0.02-0.62,0-1.24,0-1.86c0.01-5.44,2.03-7.06,7.31-5.57c0.81,0.23,1.61,1.39,1.9,2.28
		C600.8,250.01,600.55,251.21,600.55,252.33z"/>
</g>
</svg>
